<svg width="80" height="80" viewBox="0 0 80 80" fill="none" xmlns="http://www.w3.org/2000/svg">
<path fill-rule="evenodd" clip-rule="evenodd" d="M0.588867 13.4233C0.588867 6.27259 6.38563 0.47583 13.5363 0.47583H66.3816C73.5323 0.47583 79.3291 6.27259 79.3291 13.4233V66.2686C79.3291 73.4193 73.5323 79.216 66.3816 79.216H13.5363C6.38562 79.216 0.588867 73.4193 0.588867 66.2686V13.4233ZM70.186 34.1536H52.1579L48.3689 52.1328H57.4328C59.0838 52.1328 60.3799 52.3805 61.3209 52.8758C62.262 53.3546 62.9224 53.9984 63.3021 54.8074C63.6983 55.6164 63.8965 56.4997 63.8965 57.4573C63.8965 58.4148 63.6571 59.2898 63.1783 60.0823C62.716 60.8583 62.0886 61.4774 61.2962 61.9397C60.5202 62.402 59.6617 62.6331 58.7206 62.6331C57.763 62.6331 56.888 62.402 56.0956 61.9397C55.3031 61.4774 54.6674 60.8583 54.1887 60.0823C53.7264 59.2898 53.4952 58.4148 53.4952 57.4573H46.6602C46.6602 59.62 47.1885 61.6177 48.2451 63.4503C49.3182 65.2664 50.7629 66.7276 52.5789 67.8337C54.4115 68.9234 56.4588 69.4682 58.7206 69.4682C60.3881 69.4682 61.9483 69.1545 63.4012 68.5271C64.854 67.8997 66.1253 67.033 67.215 65.9268C68.3211 64.8207 69.1796 63.5411 69.7905 62.0883C70.4179 60.6354 70.7316 59.0917 70.7316 57.4573C70.7316 55.2449 70.2197 53.239 69.1961 51.4394C68.1725 49.6398 66.7609 48.1952 64.9613 47.1056C63.1783 46.0159 61.1063 45.4298 58.7454 45.3473L56.8137 45.2977L57.7053 40.9887H68.7455L70.186 34.1536ZM25.7822 34.1536H46.6602L45.1849 40.9887H32.6173V46.8331H43.9233L42.448 53.6682H32.6173V68.8243H25.7822V34.1536Z" fill="#2100FC"/>
</svg>
