<svg width="21" height="20" viewBox="0 0 21 20" fill="none" xmlns="http://www.w3.org/2000/svg">
<path d="M5.64998 13.0333C6.13179 13.0333 6.59387 13.2247 6.93456 13.5654C7.27525 13.9061 7.46665 14.3681 7.46665 14.8499C7.46665 15.8333 6.64998 16.6666 5.64998 16.6666C4.66665 16.6666 3.83331 15.8333 3.83331 14.8499C3.83331 14.3681 4.02471 13.9061 4.3654 13.5654C4.70609 13.2247 5.16817 13.0333 5.64998 13.0333ZM3.83331 3.69995C7.27229 3.69995 10.5704 5.06608 13.0021 7.4978C15.4339 9.92952 16.8 13.2276 16.8 16.6666H14.4416C14.4416 13.8531 13.324 11.1548 11.3345 9.16539C9.34509 7.17594 6.64682 6.05828 3.83331 6.05828V3.69995ZM3.83331 8.41662C6.02135 8.41662 8.11977 9.28581 9.66694 10.833C11.2141 12.3802 12.0833 14.4786 12.0833 16.6666H9.72498C9.72498 15.104 9.10425 13.6055 7.99935 12.5006C6.89445 11.3957 5.39588 10.775 3.83331 10.775V8.41662Z" fill="black"/>
</svg>
