<svg width="157" height="40" viewBox="0 0 157 40" fill="none" xmlns="http://www.w3.org/2000/svg">
<g clip-path="url(#clip0_101:1283)">
<path fill-rule="evenodd" clip-rule="evenodd" d="M16.3194 12.5525L22.8331 1.31214L29.3467 12.5525H30.5895L23.7349 0.723741C23.6765 0.623176 23.3583 0.121216 22.8169 0.121216C22.5721 0.121216 22.2198 0.225727 21.9312 0.723741L15.0767 12.5525H16.3194Z" fill="black"/>
<path fill-rule="evenodd" clip-rule="evenodd" d="M22.6773 25.9915C22.8086 26.1457 22.9453 26.2391 23.0748 26.2917C22.8881 26.3484 22.7228 26.3544 22.6672 26.3544H22.1305L15.7303 37.3987L9.33029 26.3544H8.79359C8.22328 26.3544 7.95618 26.1078 7.83203 25.8979C7.85727 25.9544 7.88021 25.9968 7.89279 26.0184L14.8285 37.9872C15.1171 38.4851 15.4695 38.5898 15.7142 38.5898C16.2556 38.5898 16.5739 38.0876 16.6322 37.9872L23.568 26.0184C23.5733 26.0094 23.5775 26.0006 23.5827 25.9915H22.6773Z" fill="black"/>
<path fill-rule="evenodd" clip-rule="evenodd" d="M36.8071 25.9915C36.9385 26.1457 37.0754 26.239 37.2047 26.2916C37.0181 26.3484 36.8527 26.3544 36.7971 26.3544H36.2604L29.8603 37.3986L23.4602 26.3544H22.9235C22.3532 26.3544 22.0861 26.1078 21.9619 25.8979C21.9871 25.9544 22.0101 25.9968 22.0227 26.0184L28.9584 37.9872C29.247 38.4851 29.5994 38.5898 29.8442 38.5898C30.3855 38.5898 30.7038 38.0876 30.7621 37.9872L37.6979 26.0184C37.7032 26.0094 37.8183 25.7993 37.8233 25.7903L36.8071 25.9915Z" fill="black"/>
<path fill-rule="evenodd" clip-rule="evenodd" d="M16.5623 12.7166C16.2918 12.2488 15.6967 12.2251 15.5801 12.2251H1.70652C1.12961 12.2251 0.862845 12.4772 0.740548 12.6888C0.470046 13.1567 0.747355 13.6825 0.805759 13.7831L7.74143 25.7519C8.00282 26.2028 8.41157 25.9586 8.65009 25.9787L8.55472 25.0105L1.76767 13.2986H15.1251V13.2922H16.6641C16.7019 13.0429 16.6397 12.8507 16.5623 12.7166Z" fill="black"/>
<path fill-rule="evenodd" clip-rule="evenodd" d="M29.0262 12.7184C29.2967 12.2505 29.8918 12.2268 30.0084 12.2268H43.8822C44.459 12.2268 44.7257 12.4789 44.8481 12.6905C45.1185 13.1585 44.8412 13.6843 44.7829 13.7849L37.8471 25.7536C37.5859 26.2045 37.5527 25.1791 37.3141 25.1992L37.0338 25.0122L43.8209 13.3003H30.4634V13.294H28.9244C28.8867 13.0446 28.9488 12.8524 29.0262 12.7184Z" fill="black"/>
<path fill-rule="evenodd" clip-rule="evenodd" d="M90.7645 1.0716C89.9392 1.41713 89.2294 1.90386 88.6368 2.5318C88.0443 3.15986 87.5828 3.91762 87.2531 4.80476C86.9234 5.69222 86.7589 6.67741 86.7589 7.76063C86.7589 8.85081 86.9234 9.83947 87.2531 10.7265C87.5828 11.6138 88.0443 12.3714 88.6368 12.9996C89.2294 13.6275 89.9392 14.1127 90.7645 14.455C91.5903 14.7972 92.4995 14.9684 93.4918 14.9684C94.498 14.9684 95.4136 14.7972 96.2395 14.455C97.0654 14.1127 97.7746 13.6275 98.3672 12.9996C98.9604 12.3714 99.4192 11.6138 99.7463 10.7265C100.072 9.83947 100.235 8.85081 100.235 7.76063C100.235 6.67741 100.072 5.69222 99.7463 4.80476C99.4192 3.91762 98.9604 3.15821 98.3672 2.52687C97.7746 1.89564 97.0654 1.40869 96.2395 1.06645C95.4136 0.724216 94.498 0.553101 93.4918 0.553101C92.4995 0.553101 91.5903 0.72586 90.7645 1.0716ZM91.1892 13.6525C90.4931 13.3668 89.894 12.9513 89.3913 12.4062C88.8885 11.8615 88.4985 11.1984 88.2226 10.4174C87.946 9.6366 87.8077 8.7511 87.8077 7.76063C87.8077 6.77725 87.946 5.89315 88.2226 5.10898C88.4985 4.32471 88.8885 3.66017 89.3913 3.11516C89.894 2.57014 90.4931 2.15308 91.1892 1.86398C91.8853 1.57488 92.6528 1.43038 93.4918 1.43038C94.3446 1.43038 95.12 1.57488 95.8194 1.86398C96.5194 2.15308 97.1165 2.57014 97.6127 3.11516C98.1089 3.66017 98.4937 4.32471 98.767 5.10898C99.0397 5.89315 99.1767 6.77725 99.1767 7.76063C99.1767 8.7511 99.0397 9.6366 98.767 10.4174C98.4937 11.1984 98.1089 11.8615 97.6127 12.4062C97.1165 12.9513 96.5194 13.3668 95.8194 13.6525C95.12 13.9383 94.3446 14.0813 93.4918 14.0813C92.6528 14.0813 91.8853 13.9383 91.1892 13.6525ZM77.2344 1.06645C76.3587 1.40869 75.6141 1.894 75.0019 2.52194C74.389 3.15011 73.9158 3.90765 73.5835 4.7949C73.2498 5.68215 73.084 6.67071 73.084 7.76063C73.084 8.85081 73.2498 9.84076 73.5835 10.7315C73.9158 11.6222 74.3845 12.3814 74.9868 13.0095C75.5898 13.6375 76.3122 14.1227 77.1544 14.4649C77.9974 14.8072 78.9281 14.9784 79.9467 14.9784C80.5399 14.9784 81.0859 14.9435 81.5854 14.8736C82.0848 14.8039 82.5509 14.7042 82.9841 14.5747C83.4167 14.445 83.8231 14.2838 84.2026 14.0911C84.5821 13.8985 84.9485 13.679 85.3018 13.4331V8.41869H81.3953V8.97698C81.3953 9.03678 81.4202 9.08995 81.47 9.13662C81.5205 9.18303 81.5821 9.2063 81.6555 9.2063H84.3724V13.0046C84.0591 13.184 83.7477 13.3451 83.4384 13.488C83.1283 13.6308 82.8026 13.7521 82.4591 13.8518C82.1163 13.9516 81.7453 14.0263 81.3455 14.0762C80.9456 14.1261 80.5032 14.151 80.0168 14.151C79.1444 14.151 78.3467 14.0046 77.6244 13.7123C76.9021 13.4198 76.282 12.9996 75.7662 12.4513C75.2497 11.903 74.8485 11.2333 74.5621 10.4423C74.2756 9.65135 74.1328 8.7578 74.1328 7.76063C74.1328 6.78368 74.2743 5.90322 74.5568 5.11884C74.84 4.33467 75.2431 3.67014 75.7662 3.12513C76.2886 2.58 76.9198 2.16119 77.6591 1.86902C78.3985 1.57641 79.2277 1.43038 80.1466 1.43038C80.8394 1.43038 81.4287 1.49348 81.9151 1.61979C82.4014 1.74589 82.8058 1.88896 83.1283 2.04847C83.4515 2.20786 83.7084 2.36079 83.8978 2.50704C84.0879 2.65318 84.2328 2.7463 84.3324 2.78607C84.3862 2.81269 84.4425 2.82594 84.5022 2.82594C84.609 2.82594 84.6923 2.77621 84.7519 2.67652L85.022 2.23788C84.7086 1.96542 84.3822 1.72442 84.0427 1.51517C83.7032 1.30571 83.3368 1.12956 82.9441 0.986699C82.5509 0.843848 82.1261 0.735831 81.6699 0.662654C81.2137 0.589581 80.7162 0.553101 80.1768 0.553101C79.0913 0.553101 78.1108 0.724216 77.2344 1.06645ZM155.833 0.712717C155.74 0.712717 155.666 0.722467 155.613 0.742292C155.56 0.762449 155.506 0.815365 155.453 0.901906L149.899 10.7016C149.846 10.7948 149.797 10.8926 149.753 10.9957C149.711 11.0988 149.669 11.2033 149.629 11.3098C149.555 11.0969 149.469 10.8975 149.369 10.7116L143.665 0.901906C143.612 0.815365 143.557 0.762449 143.5 0.742292C143.443 0.722467 143.369 0.712717 143.275 0.712717H142.576V14.8188H143.465V2.79604C143.465 2.6167 143.455 2.43047 143.435 2.23788L149.15 12.1073C149.249 12.28 149.382 12.3665 149.55 12.3665H149.709C149.882 12.3665 150.015 12.28 150.109 12.1073L155.673 2.24774C155.653 2.44044 155.643 2.62339 155.643 2.79604V14.8188H156.542V0.712717H155.833ZM138.621 0.712717V7.29199H129.77V0.712717H128.741V14.8188H129.77V8.05996H138.621V14.8188H139.65V0.712717H138.621ZM116.584 0.712717V1.57981H121.58V14.8188H122.598V1.57981H127.563V0.712717H116.584ZM113.999 14.8188H115.028V0.712717H113.999V14.8188ZM102.592 0.712717V14.8188H103.61V8.43865H105.459C105.732 8.43865 105.933 8.46855 106.063 8.52828C106.193 8.58821 106.315 8.69104 106.427 8.83729L110.953 14.5596C111.027 14.6527 111.101 14.7192 111.178 14.7589C111.255 14.799 111.347 14.8188 111.453 14.8188H112.342L107.477 8.71782C107.35 8.55168 107.207 8.41869 107.047 8.31911C107.666 8.25255 108.223 8.11144 108.716 7.89531C109.209 7.67938 109.629 7.40339 109.979 7.06786C110.329 6.73227 110.597 6.34175 110.784 5.89665C110.97 5.45122 111.063 4.95923 111.063 4.42089C111.063 3.20488 110.66 2.28279 109.854 1.65452C109.049 1.02658 107.829 0.712717 106.198 0.712717H102.592ZM103.61 1.5201H106.198C107.457 1.5201 108.415 1.76265 109.075 2.24774C109.734 2.73294 110.065 3.47745 110.065 4.48093C110.065 4.9727 109.974 5.41463 109.794 5.80682C109.615 6.1989 109.353 6.53467 109.01 6.81378C108.667 7.09282 108.248 7.30713 107.751 7.45676C107.255 7.60619 106.694 7.68114 106.068 7.68114H103.61V1.5201ZM65.7924 0.712717V14.8188H73.5147V13.9516H66.8112V0.712717H65.7924ZM58.0216 0.712717L52.2373 14.8188H53.0165C53.1099 14.8188 53.1898 14.7921 53.2562 14.739C53.3228 14.686 53.3695 14.6227 53.3962 14.5496L55.0544 10.4524H61.9977L63.6661 14.5496C63.6993 14.6294 63.746 14.6942 63.8059 14.744C63.8658 14.7939 63.9424 14.8188 64.0356 14.8188H64.8249L59.0405 0.712717H58.0216ZM58.2514 2.57694C58.298 2.4572 58.3446 2.32574 58.3911 2.18299C58.4379 2.04014 58.4843 1.88896 58.5311 1.72934C58.5777 1.88896 58.6243 2.04014 58.671 2.18299C58.7175 2.32574 58.7643 2.4538 58.8109 2.56686L61.698 9.69477H55.3643L58.2514 2.57694ZM94.9057 25.0021C94.0568 25.3511 93.3273 25.843 92.7177 26.4776C92.1082 27.1123 91.6356 27.8716 91.2993 28.7557C90.9631 29.6394 90.7946 30.6164 90.7946 31.6864C90.7946 32.7763 90.9578 33.7666 91.2842 34.6573C91.6107 35.5478 92.0649 36.3072 92.6483 36.9352C93.2303 37.5635 93.9297 38.0486 94.7457 38.3908C95.3665 38.651 96.0337 38.8123 96.7482 38.8749H98.202C98.5002 38.8509 98.7827 38.8126 99.0515 38.7597C99.5411 38.6632 99.9907 38.527 100.4 38.3508C100.81 38.1747 101.188 37.962 101.534 37.7128C101.88 37.4636 102.2 37.1828 102.493 36.8706L102.093 36.4418C102.047 36.3953 101.99 36.3721 101.924 36.3721C101.884 36.3721 101.849 36.3804 101.819 36.3968C101.789 36.4136 101.757 36.4352 101.724 36.4617C101.444 36.7208 101.161 36.9468 100.874 37.1397C100.589 37.3325 100.278 37.4952 99.9455 37.6283C99.6125 37.7611 99.2481 37.8606 98.8515 37.9271C98.4557 37.9936 98.004 38.027 97.498 38.027C96.6918 38.027 95.9446 37.8822 95.2557 37.5932C94.5661 37.3039 93.9684 36.8888 93.4623 36.347C92.9557 35.8055 92.5598 35.1426 92.2733 34.3582C91.9869 33.5738 91.8433 32.6832 91.8433 31.6864C91.8433 30.7162 91.9882 29.8405 92.2779 29.0598C92.5676 28.2788 92.9727 27.6143 93.4918 27.0661C94.0116 26.5175 94.631 26.0954 95.3501 25.7998C96.0698 25.5039 96.8583 25.3562 97.7176 25.3562C98.1843 25.3562 98.5998 25.391 98.9669 25.4608C99.3327 25.5307 99.6558 25.617 99.9357 25.7199C100.216 25.8228 100.457 25.9359 100.66 26.0589C100.863 26.1819 101.036 26.2951 101.18 26.3977C101.323 26.5009 101.441 26.5874 101.534 26.6571C101.627 26.7269 101.703 26.7618 101.764 26.7618C101.877 26.7618 101.96 26.722 102.014 26.6422L102.323 26.1935C102.01 25.9145 101.691 25.6683 101.364 25.4557C101.038 25.2432 100.69 25.0653 100.32 24.9225C99.9508 24.7796 99.5529 24.6701 99.1268 24.5936C98.7001 24.517 98.2308 24.479 97.7176 24.479C96.6918 24.479 95.7545 24.6534 94.9057 25.0021ZM114.32 24.6383V31.218H105.469V24.6383H104.44V38.7447H105.469V31.9855H114.32V38.7447H115.349V24.6383H114.32ZM80.6959 24.6383V25.5055H85.6912V38.7447H86.7104V25.5055H91.6749V24.6383H80.6959ZM75.8225 24.6383L70.0381 38.7447H70.8174C70.9105 38.7447 70.9905 38.7182 71.0573 38.6649C71.1235 38.6117 71.1701 38.5487 71.1969 38.4755L72.8553 34.378H79.7986L81.4667 38.4755C81.5002 38.5554 81.5467 38.62 81.607 38.67C81.6666 38.7196 81.7433 38.7447 81.8364 38.7447H82.6256L76.8418 24.6383H75.8225ZM76.0519 26.5025C76.0991 26.3828 76.1457 26.2517 76.1922 26.109C76.2388 25.966 76.2853 25.8148 76.3318 25.6553C76.3784 25.8148 76.4249 25.966 76.4721 26.109C76.5186 26.2517 76.5652 26.3796 76.6117 26.4926L79.499 33.6205H73.1653L76.0519 26.5025ZM70.8489 24.6383C70.7558 24.6383 70.6739 24.6649 70.6044 24.7182C70.5343 24.7712 70.4897 24.8343 70.4694 24.9075L66.903 36.5017C66.863 36.6345 66.8296 36.7758 66.8034 36.9254C66.7765 37.0746 66.7464 37.2293 66.7129 37.3888C66.6795 37.2225 66.6448 37.0666 66.6081 36.9203C66.5713 36.7739 66.53 36.6345 66.4835 36.5017L62.4872 24.9075C62.4538 24.8279 62.4074 24.7629 62.3474 24.7133C62.2875 24.6634 62.2109 24.6383 62.1175 24.6383H61.8379C61.7447 24.6383 61.6645 24.6649 61.5981 24.7182C61.5314 24.7712 61.4848 24.8343 61.4582 24.9075L57.4622 36.5017C57.4155 36.6345 57.3757 36.7773 57.3424 36.9304C57.309 37.083 57.2756 37.2427 57.2424 37.4088C57.2091 37.2427 57.1774 37.083 57.1475 36.9304C57.1173 36.7773 57.0824 36.6345 57.0426 36.5017L53.4761 24.9075C53.4227 24.728 53.2997 24.6383 53.1066 24.6383H52.2573L56.7129 38.7447H57.6221L61.8078 26.5025C61.861 26.343 61.9078 26.1736 61.9477 25.9944C61.9877 26.1736 62.0342 26.343 62.0876 26.5025L66.2633 38.7447H67.1829L71.6282 24.6383H70.8489Z" fill="black"/>
<path fill-rule="evenodd" clip-rule="evenodd" d="M22.5139 25.7518L22.2408 25.2809H8.85994L15.5514 13.7339C15.4646 13.5659 15.2723 13.1048 15.5128 12.6887C15.5982 12.5411 15.7542 12.3742 16.0364 12.2864C15.941 12.249 15.8357 12.2249 15.7194 12.2249C15.4747 12.2249 15.1224 12.3296 14.8338 12.8275L7.89805 24.796C7.83965 24.8968 7.56232 25.4227 7.83283 25.8907C7.95514 26.1023 8.22192 26.3544 8.79879 26.3544H22.6724C22.728 26.3544 22.8934 26.3483 23.08 26.2917C22.8938 26.2161 22.6917 26.0589 22.5139 25.7518Z" fill="black"/>
<path fill-rule="evenodd" clip-rule="evenodd" d="M37.6979 24.796L30.7622 12.8275C30.7039 12.7268 30.3855 12.225 29.8442 12.225C29.7548 12.225 29.651 12.2392 29.5412 12.2813C29.7503 12.341 29.9914 12.4635 30.1377 12.7166C30.2587 12.926 30.3427 13.2778 30.0645 13.7681L36.7361 25.2809H23.3935L23.1206 25.7519C23.0741 25.8318 22.8617 26.1667 22.5034 26.2994C22.6211 26.3336 22.7594 26.3544 22.9235 26.3544H36.7971C36.9137 26.3544 37.5088 26.3306 37.7793 25.8626C37.9016 25.6513 37.9867 25.2946 37.6979 24.796Z" fill="black"/>
<path fill-rule="evenodd" clip-rule="evenodd" d="M29.77 12.225H15.8964C15.3196 12.225 15.0527 12.4772 14.9305 12.6886C14.66 13.1566 14.9373 13.6825 14.9957 13.7832L21.9314 25.7519C22.22 26.2496 22.5724 26.3544 22.8171 26.3544C23.3584 26.3544 23.6768 25.8524 23.7351 25.7519L30.6709 13.7832C30.9596 13.285 30.8745 12.9282 30.7522 12.7166C30.4817 12.2486 29.8866 12.225 29.77 12.225ZM15.9576 13.2986H29.709L22.8333 25.1634L15.9576 13.2986Z" fill="black"/>
</g>
<defs>
<clipPath id="clip0_101:1283">
<rect width="156" height="39" fill="white" transform="translate(0.624023 0.0117188)"/>
</clipPath>
</defs>
</svg>
