<svg width="215" height="44" viewBox="0 0 215 44" fill="none" xmlns="http://www.w3.org/2000/svg">
<path d="M58.2062 19.4878C58.9442 19.4878 59.6119 19.3572 60.2094 19.096C60.8068 18.8348 61.2813 18.4133 61.6327 17.8316C61.9842 17.2498 62.1599 16.478 62.1599 15.5163V13.1833C62.1599 13.0052 62.1072 12.8538 62.0018 12.7291C61.8963 12.6045 61.744 12.5421 61.5449 12.5421H58.5225C58.335 12.5421 58.1886 12.6223 58.0832 12.7826C57.9777 12.9428 57.925 13.112 57.925 13.2901C57.925 13.492 57.9777 13.6701 58.0832 13.8244C58.1886 13.9788 58.335 14.0559 58.5225 14.0559H60.2973V15.5163C60.2973 16.2999 60.1098 16.8788 59.7349 17.2528C59.3601 17.6268 58.8505 17.8138 58.2062 17.8138C57.5502 17.8138 57.0376 17.6268 56.6686 17.2528C56.2996 16.8788 56.1151 16.2999 56.1151 15.5163V10.3338C56.1151 9.55013 56.2996 8.97132 56.6686 8.59732C57.0376 8.22332 57.5502 8.03632 58.2062 8.03632C58.7216 8.03632 59.1258 8.1224 59.4187 8.29456C59.7115 8.46672 59.9224 8.69824 60.0512 8.98913C60.1801 9.28002 60.2621 9.59763 60.2973 9.94194C60.309 10.1794 60.4056 10.3427 60.5872 10.4317C60.7688 10.5208 60.9826 10.5653 61.2286 10.5653C61.5332 10.5653 61.7645 10.5029 61.9227 10.3783C62.0808 10.2536 62.1599 10.0132 62.1599 9.65699C62.1599 8.98023 61.99 8.39845 61.6503 7.91166C61.3106 7.42486 60.842 7.04493 60.2445 6.77185C59.6471 6.49877 58.9501 6.36223 58.1535 6.36223C57.4389 6.36223 56.7858 6.49283 56.1942 6.75404C55.6026 7.01524 55.134 7.43674 54.7884 8.01851C54.4428 8.60029 54.27 9.37204 54.27 10.3338V15.5163C54.27 16.478 54.4428 17.2498 54.7884 17.8316C55.134 18.4133 55.6026 18.8348 56.1942 19.096C56.7858 19.3572 57.4564 19.4878 58.2062 19.4878ZM71.1754 19.381C71.398 19.381 71.5562 19.2919 71.6499 19.1138C71.7436 18.9358 71.7905 18.7517 71.7905 18.5618C71.7905 18.3243 71.7377 18.1225 71.6323 17.9562C71.5269 17.79 71.3746 17.7069 71.1754 17.7069H65.9565V13.6107H68.6626C68.8852 13.6107 69.0433 13.5306 69.1371 13.3703C69.2308 13.21 69.2776 13.0467 69.2776 12.8805C69.2776 12.6787 69.2249 12.5006 69.1195 12.3462C69.0141 12.1919 68.8618 12.1147 68.6626 12.1147H65.9565V8.03632H71.1754C71.3746 8.03632 71.5269 7.95024 71.6323 7.77809C71.7377 7.60593 71.7905 7.40705 71.7905 7.18147C71.7905 6.9915 71.7436 6.80747 71.6499 6.62937C71.5562 6.45128 71.398 6.36223 71.1754 6.36223H64.9198C64.7206 6.36223 64.5332 6.41566 64.3574 6.52251C64.1817 6.62937 64.0939 6.78372 64.0939 6.98556V18.7577C64.0939 18.9595 64.1817 19.1138 64.3574 19.2207C64.5332 19.3276 64.7206 19.381 64.9198 19.381H71.1754ZM76.4481 19.5235C77.2213 19.5235 77.9095 19.3869 78.5128 19.1138C79.1161 18.8408 79.5906 18.4222 79.9362 17.8583C80.2817 17.2943 80.4545 16.5849 80.4545 15.73C80.4545 15.0533 80.352 14.4863 80.147 14.0292C79.942 13.5721 79.6667 13.1952 79.3211 12.8983C78.9756 12.6015 78.6007 12.3492 78.1965 12.1414C77.7924 11.9336 77.3882 11.7526 76.984 11.5982C76.5799 11.4439 76.2079 11.2806 75.8682 11.1085C75.5285 10.9363 75.2561 10.7285 75.0511 10.4851C74.8461 10.2417 74.7436 9.93007 74.7436 9.55013C74.7436 9.1702 74.8373 8.86447 75.0248 8.63294C75.2122 8.40142 75.4728 8.22629 75.8067 8.10756C76.1406 7.98883 76.5184 7.92947 76.9401 7.92947C77.4321 7.92947 77.8275 7.98586 78.1262 8.09866C78.425 8.21145 78.668 8.32424 78.8555 8.43704C79.0429 8.54983 79.2128 8.60623 79.3651 8.60623C79.5408 8.60623 79.6843 8.54686 79.7956 8.42813C79.9069 8.3094 79.9918 8.1699 80.0504 8.00961C80.109 7.84932 80.1382 7.70982 80.1382 7.59109C80.1382 7.35362 80.027 7.15178 79.8044 6.98556C79.5818 6.81934 79.3006 6.68577 78.9609 6.58485C78.6212 6.48393 78.2727 6.41269 77.9154 6.37113C77.5581 6.32958 77.233 6.3088 76.9401 6.3088C76.4715 6.3088 75.9971 6.3652 75.5168 6.47799C75.0365 6.59078 74.5972 6.77778 74.1989 7.03899C73.8006 7.3002 73.4813 7.65045 73.2412 8.08975C73.001 8.52905 72.881 9.07521 72.881 9.72823C72.881 10.3456 72.9835 10.8591 73.1885 11.2688C73.3935 11.6784 73.6658 12.0168 74.0056 12.2839C74.3453 12.551 74.7202 12.7796 75.1302 12.9696C75.5402 13.1595 75.9444 13.3376 76.3427 13.5038C76.741 13.6701 77.1129 13.8541 77.4585 14.0559C77.8041 14.2578 78.0794 14.5071 78.2844 14.8039C78.4894 15.1008 78.5919 15.4748 78.5919 15.9259C78.5919 16.3534 78.4952 16.7066 78.302 16.9856C78.1087 17.2646 77.8451 17.4724 77.5112 17.6089C77.1773 17.7455 76.7995 17.8138 76.3778 17.8138C75.8858 17.8138 75.4816 17.7425 75.1653 17.6C74.849 17.4576 74.5855 17.2913 74.3746 17.1014C74.1637 16.9114 73.9851 16.7482 73.8386 16.6116C73.6922 16.4751 73.537 16.4068 73.373 16.4068C73.2324 16.4068 73.1006 16.4632 72.9776 16.576C72.8546 16.6888 72.755 16.8224 72.6789 16.9767C72.6027 17.1311 72.5647 17.2795 72.5647 17.4219C72.5647 17.7188 72.7287 18.0304 73.0567 18.3569C73.3847 18.6835 73.8416 18.9595 74.4273 19.1851C75.013 19.4107 75.6866 19.5235 76.4481 19.5235ZM89.2241 19.381C89.4466 19.381 89.6048 19.2919 89.6985 19.1138C89.7922 18.9358 89.8391 18.7517 89.8391 18.5618C89.8391 18.3243 89.7864 18.1225 89.6809 17.9562C89.5755 17.79 89.4232 17.7069 89.2241 17.7069H84.0051V13.6107H86.7112C86.9338 13.6107 87.092 13.5306 87.1857 13.3703C87.2794 13.21 87.3263 13.0467 87.3263 12.8805C87.3263 12.6787 87.2736 12.5006 87.1681 12.3462C87.0627 12.1919 86.9104 12.1147 86.7112 12.1147H84.0051V8.03632H89.2241C89.4232 8.03632 89.5755 7.95024 89.6809 7.77809C89.7864 7.60593 89.8391 7.40705 89.8391 7.18147C89.8391 6.9915 89.7922 6.80747 89.6985 6.62937C89.6048 6.45128 89.4466 6.36223 89.2241 6.36223H82.9684C82.7692 6.36223 82.5818 6.41566 82.4061 6.52251C82.2304 6.62937 82.1425 6.78372 82.1425 6.98556V18.7577C82.1425 18.9595 82.2304 19.1138 82.4061 19.2207C82.5818 19.3276 82.7692 19.381 82.9684 19.381H89.2241ZM97.6948 19.381C97.8823 19.381 98.0229 19.2919 98.1166 19.1138C98.2103 18.9358 98.2572 18.7458 98.2572 18.5439C98.2572 18.3302 98.2103 18.1373 98.1166 17.9651C98.0229 17.793 97.8823 17.7069 97.6948 17.7069H93.1261V6.96775C93.1261 6.75404 93.0295 6.59969 92.8362 6.5047C92.6429 6.40972 92.4291 6.36223 92.1948 6.36223C91.9605 6.36223 91.7467 6.40972 91.5534 6.5047C91.3601 6.59969 91.2635 6.75404 91.2635 6.96775V18.7577C91.2635 18.9595 91.3513 19.1138 91.527 19.2207C91.7028 19.3276 91.8902 19.381 92.0893 19.381H97.6948ZM105.99 19.381C106.177 19.381 106.318 19.2919 106.412 19.1138C106.505 18.9358 106.552 18.7458 106.552 18.5439C106.552 18.3302 106.505 18.1373 106.412 17.9651C106.318 17.793 106.177 17.7069 105.99 17.7069H101.421V6.96775C101.421 6.75404 101.325 6.59969 101.131 6.5047C100.938 6.40972 100.724 6.36223 100.49 6.36223C100.256 6.36223 100.042 6.40972 99.8485 6.5047C99.6552 6.59969 99.5585 6.75404 99.5585 6.96775V18.7577C99.5585 18.9595 99.6464 19.1138 99.8221 19.2207C99.9978 19.3276 100.185 19.381 100.384 19.381H105.99ZM111.087 19.5235C111.86 19.5235 112.548 19.3869 113.152 19.1138C113.755 18.8408 114.229 18.4222 114.575 17.8583C114.921 17.2943 115.093 16.5849 115.093 15.73C115.093 15.0533 114.991 14.4863 114.786 14.0292C114.581 13.5721 114.305 13.1952 113.96 12.8983C113.614 12.6015 113.239 12.3492 112.835 12.1414C112.431 11.9336 112.027 11.7526 111.623 11.5982C111.219 11.4439 110.847 11.2806 110.507 11.1085C110.167 10.9363 109.895 10.7285 109.69 10.4851C109.485 10.2417 109.382 9.93007 109.382 9.55013C109.382 9.1702 109.476 8.86447 109.664 8.63294C109.851 8.40142 110.112 8.22629 110.445 8.10756C110.779 7.98883 111.157 7.92947 111.579 7.92947C112.071 7.92947 112.466 7.98586 112.765 8.09866C113.064 8.21145 113.307 8.32424 113.494 8.43704C113.682 8.54983 113.852 8.60623 114.004 8.60623C114.18 8.60623 114.323 8.54686 114.434 8.42813C114.546 8.3094 114.631 8.1699 114.689 8.00961C114.748 7.84932 114.777 7.70982 114.777 7.59109C114.777 7.35362 114.666 7.15178 114.443 6.98556C114.221 6.81934 113.939 6.68577 113.6 6.58485C113.26 6.48393 112.911 6.41269 112.554 6.37113C112.197 6.32958 111.872 6.3088 111.579 6.3088C111.11 6.3088 110.636 6.3652 110.156 6.47799C109.675 6.59078 109.236 6.77778 108.838 7.03899C108.439 7.3002 108.12 7.65045 107.88 8.08975C107.64 8.52905 107.52 9.07521 107.52 9.72823C107.52 10.3456 107.622 10.8591 107.827 11.2688C108.032 11.6784 108.305 12.0168 108.644 12.2839C108.984 12.551 109.359 12.7796 109.769 12.9696C110.179 13.1595 110.583 13.3376 110.981 13.5038C111.38 13.6701 111.752 13.8541 112.097 14.0559C112.443 14.2578 112.718 14.5071 112.923 14.8039C113.128 15.1008 113.231 15.4748 113.231 15.9259C113.231 16.3534 113.134 16.7066 112.941 16.9856C112.747 17.2646 112.484 17.4724 112.15 17.6089C111.816 17.7455 111.438 17.8138 111.017 17.8138C110.525 17.8138 110.12 17.7425 109.804 17.6C109.488 17.4576 109.224 17.2913 109.013 17.1014C108.802 16.9114 108.624 16.7482 108.477 16.6116C108.331 16.4751 108.176 16.4068 108.012 16.4068C107.871 16.4068 107.739 16.4632 107.616 16.576C107.493 16.6888 107.394 16.8224 107.318 16.9767C107.242 17.1311 107.203 17.2795 107.203 17.4219C107.203 17.7188 107.367 18.0304 107.695 18.3569C108.023 18.6835 108.48 18.9595 109.066 19.1851C109.652 19.4107 110.325 19.5235 111.087 19.5235ZM120.542 19.4878C121.35 19.4878 122.053 19.3454 122.65 19.0604C123.248 18.7755 123.713 18.3807 124.047 17.8761C124.381 17.3715 124.548 16.7986 124.548 16.1575C124.548 15.7657 124.472 15.5045 124.32 15.3738C124.167 15.2432 123.927 15.1779 123.599 15.1779C123.342 15.1779 123.128 15.2254 122.958 15.3204C122.788 15.4154 122.697 15.5757 122.685 15.8013C122.662 15.9912 122.627 16.202 122.58 16.4335C122.533 16.665 122.445 16.8847 122.316 17.0925C122.188 17.3002 121.991 17.4724 121.728 17.6089C121.464 17.7455 121.11 17.8138 120.665 17.8138C119.962 17.8138 119.426 17.6268 119.057 17.2528C118.688 16.8788 118.503 16.2999 118.503 15.5163V10.3338C118.503 9.55013 118.685 8.97132 119.048 8.59732C119.411 8.22332 119.933 8.03632 120.612 8.03632C121.081 8.03632 121.45 8.10459 121.719 8.24113C121.988 8.37767 122.191 8.54983 122.325 8.75761C122.46 8.96539 122.551 9.17613 122.598 9.38985C122.644 9.60356 122.674 9.78759 122.685 9.94194C122.697 10.1557 122.785 10.313 122.949 10.4139C123.113 10.5148 123.336 10.5653 123.617 10.5653C123.933 10.5653 124.167 10.5029 124.32 10.3783C124.472 10.2536 124.548 9.98943 124.548 9.58575C124.548 8.95648 124.381 8.40142 124.047 7.92056C123.713 7.4397 123.251 7.05977 122.659 6.78075C122.068 6.50174 121.368 6.36223 120.559 6.36223C119.856 6.36223 119.206 6.49283 118.609 6.75404C118.011 7.01524 117.537 7.43674 117.185 8.01851C116.834 8.60029 116.658 9.37204 116.658 10.3338V15.5163C116.658 16.478 116.834 17.2498 117.185 17.8316C117.537 18.4133 118.008 18.8348 118.6 19.096C119.192 19.3572 119.839 19.4878 120.542 19.4878ZM133.406 19.381C133.64 19.381 133.854 19.3276 134.047 19.2207C134.24 19.1138 134.337 18.9595 134.337 18.7577V6.96775C134.337 6.75404 134.24 6.59969 134.047 6.5047C133.854 6.40972 133.64 6.36223 133.406 6.36223C133.171 6.36223 132.957 6.40972 132.764 6.5047C132.571 6.59969 132.474 6.75404 132.474 6.96775V11.8832H128.099V6.96775C128.099 6.75404 128.002 6.59969 127.809 6.5047C127.616 6.40972 127.402 6.36223 127.167 6.36223C126.933 6.36223 126.719 6.40972 126.526 6.5047C126.333 6.59969 126.236 6.75404 126.236 6.96775V18.7577C126.236 18.9595 126.333 19.1138 126.526 19.2207C126.719 19.3276 126.933 19.381 127.167 19.381C127.402 19.381 127.616 19.3276 127.809 19.2207C128.002 19.1138 128.099 18.9595 128.099 18.7577V13.3792H132.474V18.7577C132.474 18.9595 132.571 19.1138 132.764 19.2207C132.957 19.3276 133.171 19.381 133.406 19.381ZM143.897 19.381C144.073 19.381 144.251 19.3454 144.433 19.2741C144.615 19.2029 144.767 19.1079 144.89 18.9892C145.013 18.8705 145.074 18.7398 145.074 18.5974C145.074 18.5618 145.063 18.5083 145.039 18.4371L141.56 6.89651C141.49 6.6828 141.34 6.52251 141.112 6.41566C140.883 6.3088 140.635 6.25537 140.365 6.25537C140.107 6.25537 139.864 6.3088 139.636 6.41566C139.407 6.52251 139.258 6.6828 139.188 6.89651L135.691 18.4371C135.679 18.5083 135.673 18.5618 135.673 18.5974C135.673 18.7517 135.732 18.8853 135.849 18.9981C135.966 19.1109 136.119 19.2029 136.306 19.2741C136.493 19.3454 136.669 19.381 136.833 19.381C136.985 19.381 137.123 19.3513 137.246 19.2919C137.369 19.2326 137.448 19.1317 137.483 18.9892L138.186 16.4602H142.544L143.265 18.9892C143.311 19.1317 143.39 19.2326 143.502 19.2919C143.613 19.3513 143.745 19.381 143.897 19.381ZM142.122 14.9464H138.608L140.365 8.83775L142.122 14.9464ZM147.342 19.381C147.577 19.381 147.79 19.3305 147.984 19.2296C148.177 19.1287 148.274 18.9714 148.274 18.7577V13.6107H150.997C151.208 13.6107 151.36 13.5306 151.454 13.3703C151.548 13.21 151.595 13.0467 151.595 12.8805C151.595 12.6787 151.545 12.5006 151.445 12.3462C151.346 12.1919 151.196 12.1147 150.997 12.1147H148.274V8.03632H153.405C153.604 8.03632 153.753 7.95024 153.853 7.77809C153.952 7.60593 154.002 7.40705 154.002 7.18147C154.002 6.9915 153.955 6.80747 153.862 6.62937C153.768 6.45128 153.616 6.36223 153.405 6.36223H147.237C147.038 6.36223 146.85 6.41566 146.675 6.52251C146.499 6.62937 146.411 6.78372 146.411 6.98556V18.7577C146.411 18.9714 146.508 19.1287 146.701 19.2296C146.894 19.3305 147.108 19.381 147.342 19.381ZM158.502 19.381C158.736 19.381 158.95 19.3276 159.143 19.2207C159.336 19.1138 159.433 18.9595 159.433 18.7577V8.08975H162.139C162.35 8.08975 162.505 8.0007 162.605 7.82261C162.704 7.64451 162.754 7.43674 162.754 7.19928C162.754 6.99743 162.707 6.80747 162.613 6.62937C162.52 6.45128 162.362 6.36223 162.139 6.36223H154.847C154.636 6.36223 154.483 6.45128 154.39 6.62937C154.296 6.80747 154.249 7.00337 154.249 7.21709C154.249 7.44267 154.302 7.64451 154.407 7.82261C154.513 8.0007 154.659 8.08975 154.847 8.08975H157.57V18.7577C157.57 18.9595 157.667 19.1138 157.86 19.2207C158.054 19.3276 158.267 19.381 158.502 19.381ZM55.3243 38.2381C55.5586 38.2381 55.7724 38.1877 55.9657 38.0868C56.159 37.9858 56.2557 37.8285 56.2557 37.6148V32.4679H58.9793C59.1902 32.4679 59.3425 32.3877 59.4362 32.2274C59.5299 32.0671 59.5768 31.9039 59.5768 31.7377C59.5768 31.5358 59.527 31.3577 59.4274 31.2034C59.3279 31.049 59.1785 30.9718 58.9793 30.9718H56.2557V26.8935H61.3867C61.5859 26.8935 61.7352 26.8074 61.8348 26.6352C61.9344 26.4631 61.9842 26.2642 61.9842 26.0386C61.9842 25.8486 61.9373 25.6646 61.8436 25.4865C61.7499 25.3084 61.5976 25.2194 61.3867 25.2194H55.2189C55.0198 25.2194 54.8323 25.2728 54.6566 25.3797C54.4809 25.4865 54.393 25.6409 54.393 25.8427V37.6148C54.393 37.8285 54.4897 37.9858 54.683 38.0868C54.8763 38.1877 55.0901 38.2381 55.3243 38.2381ZM68.3639 23.4562C68.5865 23.4562 68.7739 23.3731 68.9262 23.2069C69.0785 23.0407 69.1546 22.8448 69.1546 22.6192C69.1546 22.3936 69.0785 22.2007 68.9262 22.0404C68.7739 21.8801 68.5865 21.7999 68.3639 21.7999C68.1413 21.7999 67.9539 21.8801 67.8016 22.0404C67.6493 22.2007 67.5731 22.3936 67.5731 22.6192C67.5731 22.8448 67.6493 23.0407 67.8016 23.2069C67.9539 23.3731 68.1413 23.4562 68.3639 23.4562ZM65.9214 23.4562C66.1439 23.4562 66.3285 23.3731 66.4749 23.2069C66.6213 23.0407 66.6945 22.8448 66.6945 22.6192C66.6945 22.3936 66.6213 22.2007 66.4749 22.0404C66.3285 21.8801 66.1439 21.7999 65.9214 21.7999C65.6988 21.7999 65.5084 21.8801 65.3503 22.0404C65.1921 22.2007 65.113 22.3936 65.113 22.6192C65.113 22.8448 65.1921 23.0407 65.3503 23.2069C65.5084 23.3731 65.6988 23.4562 65.9214 23.4562ZM67.1514 38.345C67.9012 38.345 68.5806 38.2144 69.1898 37.9532C69.7989 37.692 70.2822 37.2705 70.6395 36.6887C70.9968 36.1069 71.1754 35.3352 71.1754 34.3735V25.8249C71.1754 25.6112 71.0759 25.4568 70.8767 25.3618C70.6776 25.2669 70.4667 25.2194 70.2441 25.2194C69.9981 25.2194 69.7814 25.2669 69.5939 25.3618C69.4065 25.4568 69.3128 25.6112 69.3128 25.8249V34.3735C69.3128 35.1571 69.1195 35.7359 68.7329 36.1099C68.3463 36.4839 67.8192 36.6709 67.1514 36.6709C66.472 36.6709 65.9448 36.4839 65.5699 36.1099C65.1951 35.7359 65.0076 35.1571 65.0076 34.3735V25.8249C65.0076 25.6112 64.908 25.4568 64.7089 25.3618C64.5097 25.2669 64.2989 25.2194 64.0763 25.2194C63.8303 25.2194 63.6136 25.2669 63.4261 25.3618C63.2387 25.4568 63.145 25.6112 63.145 25.8249V34.3735C63.145 35.3352 63.3207 36.1069 63.6721 36.6887C64.0236 37.2705 64.5039 37.692 65.113 37.9532C65.7222 38.2144 66.4017 38.345 67.1514 38.345ZM80.2964 38.2916C80.4838 38.2916 80.6625 38.2441 80.8323 38.1491C81.0022 38.0541 81.1457 37.9324 81.2629 37.784C81.38 37.6356 81.4386 37.4842 81.4386 37.3299C81.4386 37.2942 81.4327 37.2497 81.421 37.1963C81.4093 37.1429 81.3917 37.0983 81.3683 37.0627L78.9082 32.3788C79.3768 32.2482 79.7956 32.0434 80.1646 31.7644C80.5336 31.4854 80.8265 31.1084 81.0432 30.6335C81.2599 30.1585 81.3683 29.5649 81.3683 28.8525C81.3683 27.9264 81.1867 27.1992 80.8236 26.6709C80.4604 26.1425 79.9742 25.7685 79.3651 25.5489C78.7559 25.3292 78.0823 25.2194 77.3443 25.2194H74.0056C73.8064 25.2194 73.6512 25.2787 73.5399 25.3975C73.4286 25.5162 73.373 25.6587 73.373 25.8249V37.6148C73.373 37.8166 73.4696 37.971 73.6629 38.0779C73.8562 38.1847 74.07 38.2381 74.3043 38.2381C74.5386 38.2381 74.7524 38.1847 74.9457 38.0779C75.139 37.971 75.2356 37.8166 75.2356 37.6148V32.6459H76.9928L79.5759 37.7395C79.6579 37.8938 79.7604 38.0244 79.8834 38.1313C80.0065 38.2381 80.1441 38.2916 80.2964 38.2916ZM77.3443 31.1321H75.2356V26.8935H77.3443C78.0003 26.8935 78.5245 27.0538 78.917 27.3743C79.3094 27.6949 79.5056 28.2411 79.5056 29.0128C79.5056 29.7845 79.3094 30.3307 78.917 30.6513C78.5245 30.9718 78.0003 31.1321 77.3443 31.1321ZM87.4327 38.2381C87.667 38.2381 87.8808 38.1877 88.0741 38.0868C88.2674 37.9858 88.3641 37.8285 88.3641 37.6148V32.4679H91.0877C91.2986 32.4679 91.4509 32.3877 91.5446 32.2274C91.6383 32.0671 91.6852 31.9039 91.6852 31.7377C91.6852 31.5358 91.6354 31.3577 91.5358 31.2034C91.4362 31.049 91.2869 30.9718 91.0877 30.9718H88.3641V26.8935H93.4951C93.6943 26.8935 93.8436 26.8074 93.9432 26.6352C94.0428 26.4631 94.0926 26.2642 94.0926 26.0386C94.0926 25.8486 94.0457 25.6646 93.952 25.4865C93.8583 25.3084 93.706 25.2194 93.4951 25.2194H87.3273C87.1282 25.2194 86.9407 25.2728 86.765 25.3797C86.5893 25.4865 86.5014 25.6409 86.5014 25.8427V37.6148C86.5014 37.8285 86.5981 37.9858 86.7914 38.0868C86.9846 38.1877 87.1984 38.2381 87.4327 38.2381ZM102.229 38.2916C102.417 38.2916 102.596 38.2441 102.765 38.1491C102.935 38.0541 103.079 37.9324 103.196 37.784C103.313 37.6356 103.372 37.4842 103.372 37.3299C103.372 37.2942 103.366 37.2497 103.354 37.1963C103.342 37.1429 103.325 37.0983 103.301 37.0627L100.841 32.3788C101.31 32.2482 101.729 32.0434 102.098 31.7644C102.467 31.4854 102.76 31.1084 102.976 30.6335C103.193 30.1585 103.301 29.5649 103.301 28.8525C103.301 27.9264 103.12 27.1992 102.757 26.6709C102.393 26.1425 101.907 25.7685 101.298 25.5489C100.689 25.3292 100.015 25.2194 99.2774 25.2194H95.9387C95.7395 25.2194 95.5843 25.2787 95.473 25.3975C95.3617 25.5162 95.3061 25.6587 95.3061 25.8249V37.6148C95.3061 37.8166 95.4027 37.971 95.596 38.0779C95.7893 38.1847 96.0031 38.2381 96.2374 38.2381C96.4717 38.2381 96.6855 38.1847 96.8788 38.0779C97.0721 37.971 97.1687 37.8166 97.1687 37.6148V32.6459H98.9259L101.509 37.7395C101.591 37.8938 101.694 38.0244 101.817 38.1313C101.94 38.2381 102.077 38.2916 102.229 38.2916ZM99.2774 31.1321H97.1687V26.8935H99.2774C99.9334 26.8935 100.458 27.0538 100.85 27.3743C101.243 27.6949 101.439 28.2411 101.439 29.0128C101.439 29.7845 101.243 30.3307 100.85 30.6513C100.458 30.9718 99.9334 31.1321 99.2774 31.1321ZM112.053 38.2381C112.276 38.2381 112.434 38.1491 112.528 37.971C112.621 37.7929 112.668 37.6089 112.668 37.4189C112.668 37.1814 112.616 36.9796 112.51 36.8134C112.405 36.6472 112.252 36.564 112.053 36.564H106.834V32.4679H109.541C109.763 32.4679 109.921 32.3877 110.015 32.2274C110.109 32.0671 110.156 31.9039 110.156 31.7377C110.156 31.5358 110.103 31.3577 109.997 31.2034C109.892 31.049 109.74 30.9718 109.541 30.9718H106.834V26.8935H112.053C112.252 26.8935 112.405 26.8074 112.51 26.6352C112.616 26.4631 112.668 26.2642 112.668 26.0386C112.668 25.8486 112.621 25.6646 112.528 25.4865C112.434 25.3084 112.276 25.2194 112.053 25.2194H105.798C105.599 25.2194 105.411 25.2728 105.235 25.3797C105.06 25.4865 104.972 25.6409 104.972 25.8427V37.6148C104.972 37.8166 105.06 37.971 105.235 38.0779C105.411 38.1847 105.599 38.2381 105.798 38.2381H112.053ZM115.024 38.2381C115.258 38.2381 115.472 38.1847 115.665 38.0779C115.859 37.971 115.955 37.8166 115.955 37.6148V25.8249C115.955 25.6112 115.859 25.4568 115.665 25.3618C115.472 25.2669 115.258 25.2194 115.024 25.2194C114.79 25.2194 114.576 25.2669 114.383 25.3618C114.189 25.4568 114.093 25.6112 114.093 25.8249V37.6148C114.093 37.8166 114.189 37.971 114.383 38.0779C114.576 38.1847 114.79 38.2381 115.024 38.2381ZM125.393 38.2381C125.627 38.2381 125.841 38.1847 126.034 38.0779C126.227 37.971 126.324 37.8166 126.324 37.6148V25.8249C126.324 25.6112 126.227 25.4568 126.034 25.3618C125.841 25.2669 125.627 25.2194 125.393 25.2194C125.158 25.2194 124.945 25.2669 124.751 25.3618C124.558 25.4568 124.461 25.6112 124.461 25.8249V30.7403H120.086V25.8249C120.086 25.6112 119.989 25.4568 119.796 25.3618C119.603 25.2669 119.389 25.2194 119.155 25.2194C118.92 25.2194 118.706 25.2669 118.513 25.3618C118.32 25.4568 118.223 25.6112 118.223 25.8249V37.6148C118.223 37.8166 118.32 37.971 118.513 38.0779C118.706 38.1847 118.92 38.2381 119.155 38.2381C119.389 38.2381 119.603 38.1847 119.796 38.0779C119.989 37.971 120.086 37.8166 120.086 37.6148V32.2363H124.461V37.6148C124.461 37.8166 124.558 37.971 124.751 38.0779C124.945 38.1847 125.158 38.2381 125.393 38.2381ZM135.673 38.2381C135.896 38.2381 136.054 38.1491 136.148 37.971C136.242 37.7929 136.288 37.6089 136.288 37.4189C136.288 37.1814 136.236 36.9796 136.13 36.8134C136.025 36.6472 135.872 36.564 135.673 36.564H130.454V32.4679H133.161C133.383 32.4679 133.541 32.3877 133.635 32.2274C133.729 32.0671 133.776 31.9039 133.776 31.7377C133.776 31.5358 133.723 31.3577 133.617 31.2034C133.512 31.049 133.36 30.9718 133.161 30.9718H130.454V26.8935H135.673C135.872 26.8935 136.025 26.8074 136.13 26.6352C136.236 26.4631 136.288 26.2642 136.288 26.0386C136.288 25.8486 136.242 25.6646 136.148 25.4865C136.054 25.3084 135.896 25.2194 135.673 25.2194H129.418C129.219 25.2194 129.031 25.2728 128.855 25.3797C128.68 25.4865 128.592 25.6409 128.592 25.8427V37.6148C128.592 37.8166 128.68 37.971 128.855 38.0779C129.031 38.1847 129.219 38.2381 129.418 38.2381H135.673ZM138.644 38.2381C138.878 38.2381 139.092 38.1847 139.285 38.0779C139.479 37.971 139.575 37.8166 139.575 37.6148V25.8249C139.575 25.6112 139.479 25.4568 139.285 25.3618C139.092 25.2669 138.878 25.2194 138.644 25.2194C138.41 25.2194 138.196 25.2669 138.003 25.3618C137.809 25.4568 137.713 25.6112 137.713 25.8249V37.6148C137.713 37.8166 137.809 37.971 138.003 38.0779C138.196 38.1847 138.41 38.2381 138.644 38.2381ZM145.129 38.2381C145.364 38.2381 145.577 38.1847 145.771 38.0779C145.964 37.971 146.061 37.8166 146.061 37.6148V26.9469H148.767C148.978 26.9469 149.133 26.8578 149.232 26.6798C149.332 26.5017 149.382 26.2939 149.382 26.0564C149.382 25.8546 149.335 25.6646 149.241 25.4865C149.147 25.3084 148.989 25.2194 148.767 25.2194H141.474C141.263 25.2194 141.111 25.3084 141.017 25.4865C140.924 25.6646 140.877 25.8605 140.877 26.0742C140.877 26.2998 140.929 26.5017 141.035 26.6798C141.14 26.8578 141.287 26.9469 141.474 26.9469H144.198V37.6148C144.198 37.8166 144.295 37.971 144.488 38.0779C144.681 38.1847 144.895 38.2381 145.129 38.2381ZM153.776 38.3806C154.549 38.3806 155.237 38.2441 155.84 37.971C156.444 37.6979 156.918 37.2794 157.264 36.7154C157.609 36.1515 157.782 35.442 157.782 34.5872C157.782 33.9104 157.68 33.3435 157.475 32.8864C157.27 32.4293 156.994 32.0523 156.649 31.7555C156.303 31.4586 155.928 31.2063 155.524 30.9986C155.12 30.7908 154.716 30.6097 154.312 30.4554C153.908 30.301 153.536 30.1378 153.196 29.9656C152.856 29.7935 152.584 29.5857 152.379 29.3423C152.174 29.0989 152.071 28.7872 152.071 28.4073C152.071 28.0273 152.165 27.7216 152.352 27.4901C152.54 27.2586 152.8 27.0834 153.134 26.9647C153.468 26.846 153.846 26.7866 154.268 26.7866C154.76 26.7866 155.155 26.843 155.454 26.9558C155.753 27.0686 155.996 27.1814 156.183 27.2942C156.371 27.407 156.54 27.4634 156.693 27.4634C156.868 27.4634 157.012 27.404 157.123 27.2853C157.235 27.1665 157.319 27.027 157.378 26.8668C157.437 26.7065 157.466 26.567 157.466 26.4482C157.466 26.2108 157.355 26.0089 157.132 25.8427C156.909 25.6765 156.628 25.5429 156.289 25.442C155.949 25.3411 155.6 25.2698 155.243 25.2283C154.886 25.1867 154.561 25.1659 154.268 25.1659C153.799 25.1659 153.325 25.2223 152.844 25.3351C152.364 25.4479 151.925 25.6349 151.527 25.8961C151.128 26.1573 150.809 26.5076 150.569 26.9469C150.329 27.3862 150.209 27.9324 150.209 28.5854C150.209 29.2028 150.311 29.7163 150.516 30.1259C150.721 30.5355 150.993 30.8739 151.333 31.141C151.673 31.4082 152.048 31.6367 152.458 31.8267C152.868 32.0167 153.272 32.1948 153.67 32.361C154.069 32.5272 154.441 32.7112 154.786 32.9131C155.132 33.1149 155.407 33.3643 155.612 33.6611C155.817 33.9579 155.92 34.3319 155.92 34.7831C155.92 35.2105 155.823 35.5637 155.63 35.8428C155.436 36.1218 155.173 36.3295 154.839 36.4661C154.505 36.6026 154.127 36.6709 153.705 36.6709C153.213 36.6709 152.809 36.5997 152.493 36.4572C152.177 36.3147 151.913 36.1485 151.702 35.9585C151.491 35.7686 151.313 35.6053 151.166 35.4688C151.02 35.3322 150.865 35.2639 150.701 35.2639C150.56 35.2639 150.428 35.3203 150.305 35.4331C150.182 35.5459 150.083 35.6795 150.007 35.8339C149.93 35.9882 149.892 36.1366 149.892 36.2791C149.892 36.5759 150.056 36.8876 150.384 37.2141C150.712 37.5406 151.169 37.8166 151.755 38.0422C152.341 38.2678 153.014 38.3806 153.776 38.3806ZM166.394 38.2916C166.581 38.2916 166.76 38.2441 166.929 38.1491C167.099 38.0541 167.243 37.9324 167.36 37.784C167.477 37.6356 167.536 37.4842 167.536 37.3299C167.536 37.2942 167.53 37.2497 167.518 37.1963C167.506 37.1429 167.489 37.0983 167.465 37.0627L165.005 32.3788C165.474 32.2482 165.893 32.0434 166.262 31.7644C166.631 31.4854 166.924 31.1084 167.14 30.6335C167.357 30.1585 167.465 29.5649 167.465 28.8525C167.465 27.9264 167.284 27.1992 166.921 26.6709C166.558 26.1425 166.071 25.7685 165.462 25.5489C164.853 25.3292 164.179 25.2194 163.441 25.2194H160.103C159.904 25.2194 159.748 25.2787 159.637 25.3975C159.526 25.5162 159.47 25.6587 159.47 25.8249V37.6148C159.47 37.8166 159.567 37.971 159.76 38.0779C159.953 38.1847 160.167 38.2381 160.401 38.2381C160.636 38.2381 160.85 38.1847 161.043 38.0779C161.236 37.971 161.333 37.8166 161.333 37.6148V32.6459H163.09L165.673 37.7395C165.755 37.8938 165.858 38.0244 165.981 38.1313C166.104 38.2381 166.241 38.2916 166.394 38.2916ZM163.441 31.1321H161.333V26.8935H163.441C164.097 26.8935 164.622 27.0538 165.014 27.3743C165.407 27.6949 165.603 28.2411 165.603 29.0128C165.603 29.7845 165.407 30.3307 165.014 30.6513C164.622 30.9718 164.097 31.1321 163.441 31.1321ZM176.217 38.2381C176.44 38.2381 176.598 38.1491 176.692 37.971C176.786 37.7929 176.832 37.6089 176.832 37.4189C176.832 37.1814 176.78 36.9796 176.674 36.8134C176.569 36.6472 176.417 36.564 176.217 36.564H170.998V32.4679H173.705C173.927 32.4679 174.085 32.3877 174.179 32.2274C174.273 32.0671 174.32 31.9039 174.32 31.7377C174.32 31.5358 174.267 31.3577 174.161 31.2034C174.056 31.049 173.904 30.9718 173.705 30.9718H170.998V26.8935H176.217C176.417 26.8935 176.569 26.8074 176.674 26.6352C176.78 26.4631 176.832 26.2642 176.832 26.0386C176.832 25.8486 176.786 25.6646 176.692 25.4865C176.598 25.3084 176.44 25.2194 176.217 25.2194H169.962C169.763 25.2194 169.575 25.2728 169.399 25.3797C169.224 25.4865 169.136 25.6409 169.136 25.8427V37.6148C169.136 37.8166 169.224 37.971 169.399 38.0779C169.575 38.1847 169.763 38.2381 169.962 38.2381H176.217ZM181.824 38.345C182.632 38.345 183.335 38.2025 183.933 37.9176C184.53 37.6326 184.996 37.2378 185.33 36.7332C185.663 36.2286 185.83 35.6558 185.83 35.0146C185.83 34.6228 185.754 34.3616 185.602 34.231C185.45 34.1004 185.209 34.0351 184.881 34.0351C184.624 34.0351 184.41 34.0826 184.24 34.1776C184.07 34.2726 183.979 34.4328 183.968 34.6584C183.944 34.8484 183.909 35.0591 183.862 35.2907C183.815 35.5222 183.728 35.7418 183.599 35.9496C183.47 36.1574 183.274 36.3295 183.01 36.4661C182.746 36.6026 182.392 36.6709 181.947 36.6709C181.244 36.6709 180.708 36.4839 180.339 36.1099C179.97 35.7359 179.786 35.1571 179.786 34.3735V29.1909C179.786 28.4073 179.967 27.8285 180.33 27.4545C180.693 27.0805 181.215 26.8935 181.894 26.8935C182.363 26.8935 182.732 26.9617 183.001 27.0983C183.271 27.2348 183.473 27.407 183.607 27.6148C183.742 27.8225 183.833 28.0333 183.88 28.247C183.927 28.4607 183.956 28.6447 183.968 28.7991C183.979 29.0128 184.067 29.1701 184.231 29.271C184.395 29.372 184.618 29.4224 184.899 29.4224C185.215 29.4224 185.45 29.3601 185.602 29.2354C185.754 29.1108 185.83 28.8466 185.83 28.4429C185.83 27.8136 185.663 27.2586 185.33 26.7777C184.996 26.2968 184.533 25.9169 183.941 25.6379C183.35 25.3589 182.65 25.2194 181.842 25.2194C181.139 25.2194 180.488 25.35 179.891 25.6112C179.294 25.8724 178.819 26.2939 178.468 26.8757C178.116 27.4574 177.94 28.2292 177.94 29.1909V34.3735C177.94 35.3352 178.116 36.1069 178.468 36.6887C178.819 37.2705 179.291 37.692 179.882 37.9532C180.474 38.2144 181.121 38.345 181.824 38.345ZM194.688 38.2381C194.922 38.2381 195.136 38.1847 195.329 38.0779C195.522 37.971 195.619 37.8166 195.619 37.6148V25.8249C195.619 25.6112 195.522 25.4568 195.329 25.3618C195.136 25.2669 194.922 25.2194 194.688 25.2194C194.453 25.2194 194.24 25.2669 194.046 25.3618C193.853 25.4568 193.756 25.6112 193.756 25.8249V30.7403H189.381V25.8249C189.381 25.6112 189.284 25.4568 189.091 25.3618C188.898 25.2669 188.684 25.2194 188.45 25.2194C188.215 25.2194 188.002 25.2669 187.808 25.3618C187.615 25.4568 187.518 25.6112 187.518 25.8249V37.6148C187.518 37.8166 187.615 37.971 187.808 38.0779C188.002 38.1847 188.215 38.2381 188.45 38.2381C188.684 38.2381 188.898 38.1847 189.091 38.0779C189.284 37.971 189.381 37.8166 189.381 37.6148V32.2363H193.756V37.6148C193.756 37.8166 193.853 37.971 194.046 38.0779C194.24 38.1847 194.453 38.2381 194.688 38.2381ZM201.173 38.2381C201.407 38.2381 201.621 38.1847 201.814 38.0779C202.008 37.971 202.104 37.8166 202.104 37.6148V26.9469H204.81C205.021 26.9469 205.176 26.8578 205.276 26.6798C205.376 26.5017 205.425 26.2939 205.425 26.0564C205.425 25.8546 205.378 25.6646 205.285 25.4865C205.191 25.3084 205.033 25.2194 204.81 25.2194H197.518C197.307 25.2194 197.155 25.3084 197.061 25.4865C196.967 25.6646 196.92 25.8605 196.92 26.0742C196.92 26.2998 196.973 26.5017 197.079 26.6798C197.184 26.8578 197.33 26.9469 197.518 26.9469H200.242V37.6148C200.242 37.8166 200.338 37.971 200.532 38.0779C200.725 38.1847 200.939 38.2381 201.173 38.2381ZM213.808 38.2381C214.031 38.2381 214.189 38.1491 214.283 37.971C214.376 37.7929 214.423 37.6089 214.423 37.4189C214.423 37.1814 214.371 36.9796 214.265 36.8134C214.16 36.6472 214.007 36.564 213.808 36.564H208.589V32.4679H211.295C211.518 32.4679 211.676 32.3877 211.77 32.2274C211.864 32.0671 211.91 31.9039 211.91 31.7377C211.91 31.5358 211.858 31.3577 211.752 31.2034C211.647 31.049 211.495 30.9718 211.295 30.9718H208.589V26.8935H213.808C214.007 26.8935 214.16 26.8074 214.265 26.6352C214.371 26.4631 214.423 26.2642 214.423 26.0386C214.423 25.8486 214.376 25.6646 214.283 25.4865C214.189 25.3084 214.031 25.2194 213.808 25.2194H207.553C207.353 25.2194 207.166 25.2728 206.99 25.3797C206.815 25.4865 206.727 25.6409 206.727 25.8427V37.6148C206.727 37.8166 206.815 37.971 206.99 38.0779C207.166 38.1847 207.353 38.2381 207.553 38.2381H213.808Z" fill="black"/>
<path d="M31.1153 13.4808H23.6048C23.3828 13.4808 23.1763 13.5412 22.9861 13.6617C22.7888 13.7866 22.689 13.9764 22.689 14.2246V29.7126C22.689 29.9628 22.8021 30.1497 23.0239 30.2662C23.2358 30.3776 23.46 30.4334 23.6957 30.4334C23.9467 30.4334 24.1749 30.3776 24.3797 30.2658L24.4471 30.2243C24.6165 30.1068 24.7025 29.9346 24.7025 29.7126L24.702 22.8041L31.1153 22.8046C31.3597 22.8046 31.5432 22.7117 31.6592 22.5269C31.7705 22.3496 31.8265 22.1632 31.8265 21.9686C31.8265 21.7431 31.7666 21.5408 31.6469 21.3629L31.6037 21.3051C31.483 21.1599 31.3189 21.0865 31.1153 21.0865L24.702 21.086V15.3372H31.1153C31.3454 15.3372 31.5249 15.2357 31.6481 15.036C31.767 14.8432 31.8265 14.6261 31.8265 14.386C31.8265 14.1768 31.7709 13.9757 31.6602 13.7834C31.5446 13.5825 31.3607 13.4808 31.1153 13.4808Z" fill="black"/>
<path d="M19.7447 13.4808H12.2342C12.0122 13.4808 11.8056 13.5412 11.6155 13.6617C11.4182 13.7866 11.3184 13.9764 11.3184 14.2246V29.7126C11.3184 29.9628 11.4315 30.1497 11.6532 30.2662C11.8652 30.3776 12.0894 30.4334 12.3251 30.4334C12.5761 30.4334 12.8043 30.3776 13.0091 30.2658L13.0765 30.2243C13.2459 30.1068 13.3319 29.9346 13.3319 29.7126L13.3314 22.8041L19.7447 22.8046C19.9891 22.8046 20.1726 22.7117 20.2886 22.5269C20.3999 22.3496 20.4559 22.1632 20.4559 21.9686C20.4559 21.7431 20.396 21.5408 20.2763 21.3629L20.2331 21.3051C20.1124 21.1599 19.9483 21.0865 19.7447 21.0865L13.3314 21.086V15.3372H19.7447C19.9748 15.3372 20.1543 15.2357 20.2774 15.036C20.3964 14.8432 20.4559 14.6261 20.4559 14.386C20.4559 14.1768 20.4003 13.9757 20.2896 13.7834C20.174 13.5825 19.9901 13.4808 19.7447 13.4808Z" fill="black"/>
<path fill-rule="evenodd" clip-rule="evenodd" d="M35.8652 20.9267C35.2972 20.9267 34.8372 21.3934 34.8372 21.9686C34.8372 22.5442 35.2972 23.011 35.8652 23.011H41.2691C40.7327 33.4929 32.1497 41.8534 21.6757 41.8534C10.8575 41.8534 2.05645 32.933 2.05645 21.9686C2.05645 11.0042 10.8575 2.08371 21.6757 2.08371C27.3954 2.08371 32.818 4.60586 36.5526 9.00376C36.9226 9.44009 37.5728 9.48933 38.0023 9.11376C38.4328 8.73819 38.4814 8.08029 38.1108 7.64395C33.985 2.78614 27.995 0 21.6757 0C9.72358 0 0 9.85495 0 21.9686C0 34.0822 9.72358 43.9371 21.6757 43.9371C33.6279 43.9371 43.352 34.0822 43.352 21.9686V20.9267H35.8652Z" fill="black"/>
</svg>
