<svg width="177" height="81" viewBox="0 0 177 81" fill="none" xmlns="http://www.w3.org/2000/svg">
<path d="M87.4606 27.0754C85.6219 27.0754 84.3906 25.7587 84.3906 24.0478C84.3906 22.3368 85.622 21.0242 87.4606 21.0242C89.2951 21.0242 90.5221 22.3449 90.5221 24.0478C90.5223 25.7587 89.2951 27.0754 87.4606 27.0754ZM87.4606 22.1579C86.4074 22.1579 85.7919 22.8731 85.7919 24.0477C85.7919 25.2343 86.4074 25.9374 87.4606 25.9374C88.5055 25.9374 89.121 25.2343 89.121 24.0477C89.121 22.8731 88.5055 22.1579 87.4606 22.1579Z" fill="black"/>
<path d="M94.3219 25.0312V27.0103H92.9531V21.089H95.0347C96.6952 21.089 97.408 21.9302 97.408 23.0234C97.408 24.206 96.6669 25.0311 95.0347 25.0311L94.3219 25.0312ZM94.3219 23.9949H95.0347C95.7476 23.9949 96.0392 23.6373 96.0392 23.0235C96.0392 22.4831 95.7235 22.1173 95.0347 22.1173H94.3219V23.9949Z" fill="black"/>
<path d="M103.702 21.0891V22.1457H101.28V23.5275H103.135V24.5435H101.28V25.9537H103.702V27.0103H99.9033V21.089L103.702 21.0891Z" fill="black"/>
<path d="M107.753 21.3005L110.555 24.8565C110.535 24.6289 110.523 24.4135 110.523 24.2224V21.0891H111.73V27.0104H111.017C110.806 27.0104 110.672 26.9576 110.539 26.7829L107.757 23.2552C107.773 23.4624 107.785 23.6617 107.785 23.8363V27.0103H106.578V21.089H107.299C107.534 21.0891 107.603 21.1176 107.753 21.3005Z" fill="black"/>
<path d="M86.067 34.47H86.2857C86.4882 34.47 86.6341 34.4049 86.7231 34.279L88.0515 32.3445C88.1974 32.1331 88.3714 32.0723 88.6428 32.0723H89.8335L88.0842 34.4659C87.9587 34.6408 87.8249 34.7464 87.6832 34.8235C87.8897 34.9008 88.0557 35.0227 88.1976 35.2461L89.9795 37.9935H88.7564C88.4447 37.9935 88.3313 37.9041 88.222 37.7414L86.8851 35.6811C86.7879 35.5307 86.6544 35.4739 86.3991 35.4739H86.067V37.9936H84.6982V32.0723H86.067V34.47Z" fill="black"/>
<path d="M93.7547 32.2828L96.557 35.8388C96.5368 35.6112 96.5247 35.3958 96.5247 35.2047V32.0714H97.7316V37.9927H97.0188C96.8082 37.9927 96.6744 37.9399 96.5408 37.7652L93.7585 34.2376C93.7745 34.445 93.787 34.6441 93.787 34.8187V37.9927H92.5801V32.0714H93.3009C93.536 32.0714 93.6049 32.0999 93.7547 32.2828Z" fill="black"/>
<path d="M103.411 38.0577C101.572 38.0577 100.341 36.741 100.341 35.0301C100.341 33.3191 101.572 32.0065 103.411 32.0065C105.246 32.0065 106.472 33.3272 106.472 35.0301C106.473 36.741 105.246 38.0577 103.411 38.0577ZM103.411 33.1403C102.358 33.1403 101.742 33.8555 101.742 35.0301C101.742 36.2167 102.358 36.9198 103.411 36.9198C104.456 36.9198 105.071 36.2167 105.071 35.0301C105.071 33.8555 104.456 33.1403 103.411 33.1403Z" fill="black"/>
<path d="M107.972 32.0714H109.122C109.361 32.0714 109.527 32.1892 109.575 32.3681L110.385 35.4568C110.438 35.6559 110.499 35.8876 110.527 36.1355C110.58 35.8794 110.648 35.6559 110.709 35.4568L111.665 32.3681C111.714 32.2177 111.884 32.0714 112.111 32.0714H112.516C112.755 32.0714 112.908 32.1852 112.969 32.3681L113.917 35.4568C113.978 35.6478 114.046 35.8592 114.095 36.103C114.14 35.8632 114.184 35.6478 114.233 35.4568L115.043 32.3681C115.087 32.2097 115.262 32.0714 115.488 32.0714H116.566L114.743 37.9927H113.504L112.394 34.3229C112.358 34.2091 112.314 34.071 112.277 33.9206C112.241 34.071 112.196 34.2091 112.16 34.3229L111.034 37.9927H109.794L107.972 32.0714Z" fill="black"/>
<path d="M120.406 36.8955H122.593V37.9927H119.037V32.0714H120.406V36.8955Z" fill="black"/>
<path d="M129.3 32.0714V33.128H126.878V34.5099H128.733V35.5259H126.878V36.9361H129.3V37.9927H125.501V32.0714H129.3Z" fill="black"/>
<path d="M134.468 37.9927H132.176V32.0714H134.468C136.303 32.0714 137.53 33.3272 137.53 35.03C137.53 36.741 136.303 37.9927 134.468 37.9927ZM134.468 33.128H133.553V36.9361H134.468C135.513 36.9361 136.128 36.2127 136.128 35.0301C136.128 33.8556 135.513 33.128 134.468 33.128Z" fill="black"/>
<path d="M143.663 36.8223V35.9241H143.08C142.906 35.9241 142.805 35.8224 142.805 35.6803V34.9244H144.903V37.4237C144.299 37.8668 143.607 38.0577 142.643 38.0577C140.918 38.0577 139.63 36.7654 139.63 35.0301C139.63 33.2622 140.845 32.0065 142.748 32.0065C143.737 32.0065 144.47 32.3478 144.943 32.803L144.546 33.4085C144.469 33.5223 144.364 33.5914 144.239 33.5914C144.158 33.5914 144.073 33.563 143.987 33.5102C143.554 33.2501 143.25 33.1403 142.7 33.1403C141.679 33.1403 141.031 33.8962 141.031 35.0301C141.031 36.2818 141.76 37.0011 142.748 37.0011C143.125 37.0011 143.404 36.932 143.663 36.8223Z" fill="black"/>
<path d="M151.472 32.0714V33.128H149.05V34.5099H150.905V35.5259H149.05V36.9361H151.472V37.9927H147.673V32.0714H151.472Z" fill="black"/>
<path d="M88.4976 43.0525V44.1093H86.0755V45.6092H88.0926V46.67H86.0755V48.9746H84.6982V43.0525H88.4976Z" fill="black"/>
<path d="M97.4649 46.0117C97.4649 46.4397 97.3913 46.8382 97.2442 47.2067C97.0969 47.5752 96.8898 47.8956 96.6227 48.168C96.3553 48.4402 96.0333 48.6535 95.6565 48.808C95.2798 48.9624 94.862 49.0396 94.403 49.0396C93.9439 49.0396 93.5252 48.9624 93.1473 48.808C92.7693 48.6535 92.446 48.4402 92.1774 48.168C91.9085 47.8956 91.7007 47.5752 91.5535 47.2067C91.4062 46.8383 91.333 46.4397 91.333 46.0117C91.333 45.5835 91.4064 45.1853 91.5535 44.8165C91.7008 44.4481 91.9086 44.1283 92.1774 43.8575C92.4462 43.5866 92.7695 43.3737 93.1473 43.2193C93.5254 43.0648 93.9439 42.9877 94.403 42.9877C94.862 42.9877 95.2798 43.0656 95.6565 43.2214C96.0333 43.3773 96.3553 43.5907 96.6227 43.8614C96.8898 44.1324 97.097 44.4522 97.2442 44.8206C97.3913 45.1892 97.4649 45.5861 97.4649 46.0117ZM96.0634 46.0117C96.0634 45.7189 96.0254 45.4554 95.95 45.2212C95.8744 44.9867 95.7657 44.7882 95.624 44.6258C95.4819 44.4632 95.3086 44.3386 95.1035 44.2518C94.8982 44.1652 94.6647 44.1219 94.4028 44.1219C94.138 44.1219 93.9023 44.1653 93.6959 44.2518C93.4894 44.3386 93.3152 44.4632 93.1735 44.6258C93.0315 44.7882 92.9228 44.987 92.8474 45.2212C92.7717 45.4556 92.734 45.7191 92.734 46.0117C92.734 46.3069 92.7717 46.5718 92.8474 46.8064C92.9228 47.0408 93.0315 47.2393 93.1735 47.4018C93.3152 47.5642 93.4892 47.6883 93.6959 47.7736C93.9024 47.8588 94.1382 47.9015 94.4028 47.9015C94.6645 47.9015 94.8982 47.8588 95.1035 47.7736C95.3088 47.6883 95.4821 47.5642 95.624 47.4018C95.7657 47.2393 95.8744 47.0406 95.95 46.8064C96.0256 46.5718 96.0634 46.3069 96.0634 46.0117Z" fill="black"/>
<path d="M103.006 47.8893C103.19 47.8893 103.354 47.8588 103.498 47.7978C103.643 47.7368 103.765 47.6495 103.865 47.5358C103.965 47.4219 104.041 47.2831 104.094 47.1192C104.146 46.9552 104.173 46.769 104.173 46.5604V43.0525H105.542V46.5604C105.542 46.9234 105.483 47.2568 105.366 47.56C105.248 47.8635 105.08 48.1251 104.861 48.3446C104.642 48.5642 104.376 48.7347 104.063 48.8569C103.75 48.9787 103.398 49.0397 103.006 49.0397C102.612 49.0397 102.258 48.9787 101.945 48.8569C101.632 48.7349 101.366 48.5642 101.147 48.3446C100.928 48.1251 100.761 47.8637 100.645 47.56C100.529 47.2568 100.471 46.9234 100.471 46.5604V43.0525H101.84V46.5563C101.84 46.7649 101.866 46.9512 101.919 47.1151C101.971 47.2792 102.048 47.4185 102.148 47.5338C102.248 47.649 102.37 47.7369 102.514 47.798C102.658 47.8588 102.822 47.8893 103.006 47.8893Z" fill="black"/>
<path d="M109.733 43.0609C109.774 43.0663 109.81 43.0765 109.843 43.0912C109.875 43.1062 109.906 43.1271 109.936 43.1542C109.965 43.1813 109.999 43.2178 110.037 43.264L112.84 46.8204C112.829 46.7066 112.821 46.5962 112.816 46.4891C112.81 46.3821 112.807 46.2813 112.807 46.1863V43.0525H114.015V48.9744H113.302C113.196 48.9744 113.107 48.9583 113.034 48.9257C112.961 48.8931 112.891 48.8336 112.824 48.7468L110.041 45.2189C110.049 45.3219 110.056 45.4228 110.061 45.5217C110.067 45.6207 110.069 45.7135 110.069 45.8001V48.9746H108.862V43.0526H109.583C109.643 43.0525 109.693 43.0553 109.733 43.0609Z" fill="black"/>
<path d="M122.772 46.0117C122.772 46.4397 122.698 46.8346 122.551 47.1965C122.404 47.5583 122.197 47.8713 121.929 48.1354C121.662 48.3996 121.34 48.6056 120.963 48.753C120.587 48.901 120.169 48.9746 119.71 48.9746H117.417V43.0525H119.71C120.169 43.0525 120.587 43.1272 120.963 43.2762C121.34 43.4252 121.662 43.6312 121.929 43.8939C122.197 44.1566 122.404 44.469 122.551 44.8307C122.698 45.1925 122.772 45.5861 122.772 46.0117ZM121.37 46.0117C121.37 45.7189 121.332 45.4547 121.257 45.2192C121.181 44.9833 121.073 44.7835 120.931 44.6196C120.789 44.4557 120.616 44.3298 120.41 44.2416C120.205 44.1536 119.972 44.1094 119.71 44.1094H118.794V47.9179H119.71C119.971 47.9179 120.205 47.874 120.41 47.7859C120.616 47.6978 120.789 47.5719 120.931 47.4079C121.073 47.244 121.181 47.0442 121.257 46.8084C121.332 46.5724 121.37 46.3069 121.37 46.0117Z" fill="black"/>
<path d="M131.35 48.9746H130.289C130.17 48.9746 130.072 48.9468 129.995 48.8912C129.918 48.8357 129.865 48.7646 129.835 48.6778L129.487 47.6455H127.243L126.895 48.6778C126.868 48.7537 126.815 48.8221 126.737 48.8831C126.658 48.9441 126.563 48.9746 126.449 48.9746H125.38L127.664 43.0525H129.066L131.35 48.9746ZM127.559 46.7106H129.171L128.628 45.0889C128.593 44.9859 128.552 44.8645 128.505 44.7252C128.457 44.5856 128.411 44.4346 128.365 44.2721C128.322 44.4373 128.277 44.5904 128.231 44.7313C128.186 44.8722 128.143 44.9941 128.102 45.0971L127.559 46.7106Z" fill="black"/>
<path d="M138.544 43.0525V44.1419H136.883V48.9746H135.514V44.1419H133.854V43.0525H138.544Z" fill="black"/>
<path d="M143.039 48.9746H141.662V43.0525H143.039V48.9746Z" fill="black"/>
<path d="M152.388 46.0117C152.388 46.4397 152.314 46.8382 152.167 47.2067C152.02 47.5752 151.813 47.8956 151.546 48.168C151.278 48.4402 150.956 48.6535 150.58 48.808C150.203 48.9624 149.785 49.0396 149.326 49.0396C148.867 49.0396 148.448 48.9624 148.071 48.808C147.692 48.6535 147.369 48.4402 147.1 48.168C146.832 47.8956 146.624 47.5752 146.477 47.2067C146.329 46.8383 146.256 46.4397 146.256 46.0117C146.256 45.5835 146.329 45.1853 146.477 44.8165C146.624 44.4481 146.832 44.1283 147.1 43.8575C147.369 43.5866 147.693 43.3737 148.071 43.2193C148.449 43.0648 148.867 42.9877 149.326 42.9877C149.785 42.9877 150.203 43.0656 150.58 43.2214C150.956 43.3773 151.278 43.5907 151.546 43.8614C151.813 44.1324 152.02 44.4522 152.167 44.8206C152.315 45.1892 152.388 45.5861 152.388 46.0117ZM150.987 46.0117C150.987 45.7189 150.949 45.4554 150.873 45.2212C150.798 44.9867 150.689 44.7882 150.547 44.6258C150.405 44.4632 150.232 44.3386 150.027 44.2518C149.822 44.1652 149.588 44.1219 149.326 44.1219C149.061 44.1219 148.826 44.1653 148.619 44.2518C148.413 44.3386 148.239 44.4632 148.097 44.6258C147.955 44.7882 147.846 44.987 147.771 45.2212C147.695 45.4556 147.657 45.7191 147.657 46.0117C147.657 46.3069 147.695 46.5718 147.771 46.8064C147.846 47.0408 147.955 47.2393 148.097 47.4018C148.239 47.5642 148.413 47.6883 148.619 47.7736C148.826 47.8588 149.061 47.9015 149.326 47.9015C149.588 47.9015 149.822 47.8588 150.027 47.7736C150.232 47.6883 150.406 47.5642 150.547 47.4018C150.689 47.2393 150.798 47.0406 150.873 46.8064C150.949 46.5718 150.987 46.3069 150.987 46.0117Z" fill="black"/>
<path d="M156.345 43.0609C156.385 43.0663 156.421 43.0765 156.454 43.0912C156.486 43.1062 156.517 43.1271 156.547 43.1542C156.577 43.1813 156.61 43.2178 156.648 43.264L159.451 46.8204C159.44 46.7066 159.432 46.5962 159.427 46.4891C159.421 46.3821 159.419 46.2813 159.419 46.1863V43.0525H160.626V48.9744H159.913C159.808 48.9744 159.718 48.9583 159.645 48.9257C159.573 48.8931 159.502 48.8336 159.435 48.7468L156.652 45.2189C156.66 45.3219 156.667 45.4228 156.673 45.5217C156.678 45.6207 156.681 45.7135 156.681 45.8001V48.9746H155.474V43.0526H156.195C156.254 43.0525 156.304 43.0553 156.345 43.0609Z" fill="black"/>
<path d="M54.8958 21.1191L56.729 22.4934L68.0669 7.26463L66.2337 5.8903L54.8958 21.1191Z" fill="black"/>
<path d="M51.2341 19.0923L53.2827 20.1165L57.3517 11.9199L55.3031 10.8958L51.2341 19.0923Z" fill="black"/>
<path d="M47.2685 17.7557L49.4668 18.3964L53.4682 4.57088L51.2699 3.9302L47.2685 17.7557Z" fill="black"/>
<path d="M45.4052 17.3891L43.1284 17.1527L44.0662 8.04724L46.3438 8.28385L45.4052 17.3891Z" fill="black"/>
<path d="M38.947 17.3006L38.166 7.07328L40.448 6.89819L41.2291 17.1253L38.947 17.3006Z" fill="black"/>
<path d="M34.8597 18.1952L33.0879 11.4039L35.3019 10.8221L37.0726 17.6135L34.8597 18.1952Z" fill="black"/>
<path d="M29.0176 15.5416L30.9961 19.808L33.07 18.8395L31.0915 14.5731L29.0176 15.5416Z" fill="black"/>
<path d="M27.4829 22.0877L26.4224 20.5802L28.2918 19.2554L29.3516 20.763L27.4829 22.0877Z" fill="black"/>
<path d="M24.4311 24.9602L19.064 19.6727L20.6669 18.0334L26.0342 23.3208L24.4311 24.9602Z" fill="black"/>
<path d="M21.9388 28.3325L13.6343 22.618L14.9204 20.7188L23.2249 26.4333L21.9388 28.3325Z" fill="black"/>
<path d="M20.0876 32.097L14.8579 29.7711L15.7854 27.6719L21.0154 29.998L20.0876 32.097Z" fill="black"/>
<path d="M3.44629 32.3677L18.9366 36.1337L19.475 33.9018L3.98539 30.1362L3.44629 32.3677Z" fill="black"/>
<path d="M6.96668 39.636L18.5229 40.3109L18.6559 38.0178L7.09968 37.3429L6.96668 39.636Z" fill="black"/>
<path d="M7.37815 43.5854L7.65479 45.8647L18.8566 44.4957L18.58 42.2164L7.37815 43.5854Z" fill="black"/>
<path d="M16.7475 47.1417L17.4258 49.3348L19.9316 48.5545L19.2534 46.3613L16.7475 47.1417Z" fill="black"/>
<path d="M12.2298 54.7166L13.2871 56.7534L21.7069 52.3522L20.6495 50.3153L12.2298 54.7166Z" fill="black"/>
<path d="M14.6447 60.2551L16.0474 62.0693L24.1341 55.7734L22.7314 53.9592L14.6447 60.2551Z" fill="black"/>
<path d="M18.7682 64.6232L20.4712 66.1565L27.1335 58.7051L25.4305 57.1718L18.7682 64.6232Z" fill="black"/>
<path d="M26.2359 63.7823L28.1851 64.9863L30.5993 61.0505L28.6501 59.8465L26.2359 63.7823Z" fill="black"/>
<path d="M31.1716 71.1191L29.04 70.2836L32.3012 61.9023L34.4328 62.738L31.1716 71.1191Z" fill="black"/>
<path d="M34.6802 71.3763L36.9263 71.8163L38.5028 63.7119L36.2568 63.2719L34.6802 71.3763Z" fill="black"/>
<path d="M42.6037 69.6832L40.3154 69.6524L40.3914 63.91L42.6797 63.9401L42.6037 69.6832Z" fill="black"/>
<path d="M46.4054 74.7488L44.5742 63.7967L46.8315 63.4164L48.6624 74.3684L46.4054 74.7488Z" fill="black"/>
<path d="M48.6738 62.9385L50.9395 69.2501L53.0919 68.4721L50.8262 62.1605L48.6738 62.9385Z" fill="black"/>
<path d="M52.5459 61.356L60.846 75.5618L62.8265 74.4096L54.5258 60.2046L52.5459 61.356Z" fill="black"/>
<path d="M57.3879 60.4592L56.123 59.1563L57.7767 57.5685L59.0422 58.8711L57.3879 60.4592Z" fill="black"/>
<path d="M64.8596 60.9515L59.1538 56.2599L60.6047 54.4835L66.3106 59.1749L64.8596 60.9515Z" fill="black"/>
<path d="M67.5021 56.1554L61.6748 52.9078L62.7852 50.9001L68.6133 54.1473L67.5021 56.1554Z" fill="black"/>
<path d="M66.3719 50.1173L63.5566 49.1578L64.2927 46.983L67.107 47.9424L66.3719 50.1173Z" fill="black"/>
<path d="M64.7407 45.1326L73.5605 46.4515L73.8979 44.1802L65.078 42.8612L64.7407 45.1326Z" fill="black"/>
<path d="M65.1919 40.9568L65.1191 38.6614L70.7785 38.4819L70.8515 40.7779L65.1919 40.9568Z" fill="black"/>
<path d="M64.408 34.5224L64.8877 36.7681L71.8858 35.2627L71.4061 33.0171L64.408 34.5224Z" fill="black"/>
<path d="M63.8521 32.7018L62.9805 30.5788L67.4952 28.7128L68.3662 30.8354L63.8521 32.7018Z" fill="black"/>
<path d="M62.1041 28.8875L60.8691 26.9538L72.8192 19.2638L74.0548 21.1973L62.1041 28.8875Z" fill="black"/>
<path d="M59.7059 25.4466L58.1465 23.7666L59.9519 22.0791L61.5105 23.7594L59.7059 25.4466Z" fill="black"/>
<path d="M40.0956 38.7909C39.9125 38.5793 39.6887 38.4167 39.4238 38.3029C39.1589 38.1894 38.8574 38.1324 38.5193 38.1324H37.3379V43.048H38.5193C38.8573 43.048 39.1589 42.991 39.4238 42.8774C39.6887 42.7638 39.9125 42.6012 40.0956 42.3895C40.2787 42.1778 40.4188 41.92 40.5163 41.6157C40.6138 41.3115 40.6628 40.9687 40.6628 40.5875C40.6628 40.2098 40.6139 39.8688 40.5163 39.5647C40.4188 39.2604 40.2785 39.0026 40.0956 38.7909Z" fill="black"/>
<path d="M56.2441 40.995L56.1926 39.3124L51.1095 39.4684L56.0832 38.4048L55.7335 36.7583L50.7574 37.8225L55.4639 35.8843L54.8269 34.3269L50.1247 36.2633L54.4072 33.5162L53.5035 32.0978L49.2171 34.8474L52.9456 31.3742L51.8043 30.1404L48.0763 33.6132L51.1267 29.5289L49.7843 28.5195L46.734 32.6038L49.0088 28.039L47.5087 27.2861L45.2336 31.8513L46.6604 26.952L45.0502 26.4798L43.6234 31.3794L44.1561 26.3036L42.4878 26.1273L41.9365 31.3824L41.5255 26.1144L39.8533 26.2459L40.2502 31.3325L38.9554 26.3989L37.3331 26.8275L38.6286 31.7638L36.4762 27.1389L34.9564 27.8512L37.1083 32.4751L34.1684 28.3107L32.7996 29.2836L35.7408 33.45L32.106 29.8774L30.9323 31.0801L34.5647 34.6504L30.3556 31.7875L29.4143 33.1809L33.6253 36.045L28.9725 33.9812L28.2943 35.5208L32.9469 37.5845L28.0018 36.3874L27.6085 38.0238L32.5522 39.2206L27.4756 38.9282L27.3794 40.6087L32.4584 40.9013L27.409 41.5229L27.6132 43.1936L32.6637 42.5719L27.805 44.0882L28.3032 45.6955L33.1591 44.1801L28.6507 46.5409L29.4267 48.0333L33.9352 45.6724L29.9188 48.8027L30.9477 50.1321L34.9644 47.0015L31.5688 50.8012L32.8177 51.925L36.2124 48.1261L33.5474 52.4721L34.976 53.3543L37.6423 49.0062L35.7923 53.7616L37.3549 54.3739L39.205 49.6183L38.2302 54.6288L39.8766 54.9512L40.8509 49.943L40.7832 55.0455L42.4603 55.0679L42.5281 49.9619L43.3695 54.9982L45.0238 54.7198L44.1832 49.6875L45.905 54.4883L47.4833 53.9181L45.761 49.1157L48.3097 53.5326L49.7615 52.689L47.2134 48.2734L50.5058 52.1623L51.7842 51.0723L48.4907 47.1821L52.4226 50.4193L53.4867 49.118L49.5523 45.8785L53.9997 48.3616L54.8153 46.8907L50.3719 44.41L55.1848 46.0551L55.7259 44.4617L50.9103 42.8157L55.9414 43.5729L56.1903 41.9082L51.1575 41.1507L56.2441 40.995ZM42.187 42.1168C41.9971 42.5836 41.7297 42.9876 41.3847 43.3286C41.0397 43.6696 40.6242 43.9355 40.1379 44.126C39.6517 44.3167 39.1124 44.4119 38.52 44.4119H35.5612V36.7686H38.52C39.1124 36.7686 39.6519 36.8648 40.1379 37.0571C40.6242 37.2495 41.0397 37.5153 41.3847 37.8545C41.7297 38.1937 41.9971 38.5968 42.187 39.0637C42.377 39.5306 42.4719 40.0385 42.4719 40.5875C42.4719 41.1402 42.377 41.6499 42.187 42.1168ZM48.2224 38.1325H45.0962V39.9161H47.4905V41.2276H45.0962V43.0478H48.2224V44.4116H43.3188V36.7684H48.2224V38.1325Z" fill="black"/>
<path d="M89.581 55.7084C89.581 56.1425 89.5125 56.5374 89.3755 56.8933C89.2385 57.2492 89.045 57.5538 88.7952 57.8071C88.5453 58.0605 88.2458 58.2566 87.8965 58.3955C87.5473 58.5344 87.1605 58.6037 86.7361 58.6037H84.5762V52.8091H86.7361C87.1605 52.8091 87.5473 52.8786 87.8965 53.0174C88.2458 53.1563 88.5453 53.3529 88.7952 53.6078C89.045 53.8624 89.2385 54.1678 89.3755 54.5236C89.5125 54.8795 89.581 55.2745 89.581 55.7084ZM88.7791 55.7084C88.7791 55.3526 88.7309 55.0345 88.6341 54.7541C88.5372 54.4739 88.4003 54.2366 88.2231 54.0424C88.0457 53.8484 87.8308 53.7001 87.5784 53.5976C87.3258 53.4952 87.0452 53.4441 86.7362 53.4441H85.3621V57.969H86.7362C87.0452 57.969 87.3258 57.9177 87.5784 57.8153C87.8308 57.7128 88.0457 57.5654 88.2231 57.3725C88.4003 57.1798 88.5373 56.9432 88.6341 56.6629C88.7308 56.3825 88.7791 56.0643 88.7791 55.7084Z" fill="black"/>
<path d="M96.5885 52.8083V53.4474H93.816V55.3722H96.0605V55.9867H93.816V57.9642H96.5885V58.6031H93.0303V52.8085H96.5885V52.8083Z" fill="black"/>
<path d="M102.343 57.9803C102.582 57.9803 102.796 57.9398 102.984 57.859C103.172 57.7782 103.331 57.665 103.461 57.5194C103.592 57.3738 103.691 57.1999 103.76 56.9978C103.828 56.7956 103.862 56.5732 103.862 56.3307V52.8085H104.64V56.3307C104.64 56.665 104.587 56.975 104.481 57.2607C104.375 57.5465 104.223 57.7938 104.025 58.0028C103.828 58.2118 103.587 58.3755 103.302 58.4941C103.017 58.6126 102.698 58.672 102.343 58.672C101.988 58.672 101.669 58.6126 101.384 58.4941C101.099 58.3755 100.857 58.2118 100.658 58.0028C100.46 57.7938 100.307 57.5465 100.201 57.2607C100.095 56.975 100.042 56.665 100.042 56.3307V52.8085H100.82V56.3265C100.82 56.5691 100.854 56.7915 100.922 56.9936C100.991 57.1959 101.09 57.3697 101.221 57.5153C101.351 57.6608 101.511 57.7748 101.7 57.857C101.89 57.9392 102.104 57.9803 102.343 57.9803Z" fill="black"/>
<path d="M112.3 52.8083V53.4675H110.434V58.603H109.652V53.4675H107.778V52.8083H112.3Z" fill="black"/>
<path d="M118.465 53.7142C118.441 53.7546 118.416 53.7848 118.389 53.8052C118.362 53.8255 118.327 53.8354 118.284 53.8354C118.238 53.8354 118.185 53.8126 118.125 53.7667C118.064 53.7209 117.988 53.6703 117.895 53.615C117.802 53.5598 117.691 53.5092 117.561 53.4633C117.43 53.4175 117.273 53.3946 117.087 53.3946C116.913 53.3946 116.758 53.4183 116.624 53.4654C116.489 53.5126 116.377 53.5765 116.287 53.6574C116.197 53.7382 116.129 53.8333 116.084 53.9424C116.038 54.0516 116.015 54.1695 116.015 54.2963C116.015 54.458 116.055 54.5922 116.134 54.6986C116.213 54.8052 116.318 54.8962 116.448 54.9715C116.579 55.047 116.727 55.1124 116.892 55.1677C117.057 55.223 117.226 55.2803 117.399 55.3395C117.573 55.3988 117.742 55.4656 117.907 55.5397C118.072 55.6139 118.22 55.7075 118.35 55.8207C118.481 55.9339 118.586 56.0728 118.665 56.2373C118.744 56.4017 118.784 56.6039 118.784 56.8437C118.784 57.0972 118.741 57.3351 118.655 57.5575C118.569 57.7799 118.443 57.9734 118.278 58.1378C118.113 58.3023 117.91 58.4316 117.669 58.526C117.429 58.6205 117.156 58.6676 116.849 58.6676C116.476 58.6676 116.135 58.5995 115.828 58.4634C115.52 58.3274 115.258 58.1433 115.04 57.9114L115.266 57.5395C115.287 57.5099 115.313 57.4848 115.344 57.4645C115.375 57.4443 115.409 57.4342 115.447 57.4342C115.504 57.4342 115.568 57.4645 115.64 57.5253C115.713 57.5859 115.804 57.6526 115.913 57.7254C116.021 57.7982 116.153 57.8649 116.307 57.9256C116.462 57.9863 116.65 58.0165 116.874 58.0165C117.059 58.0165 117.224 57.991 117.369 57.9397C117.514 57.8886 117.637 57.8164 117.738 57.7234C117.839 57.6303 117.916 57.5192 117.97 57.3898C118.023 57.2603 118.05 57.1161 118.05 56.9571C118.05 56.7818 118.011 56.6383 117.931 56.5264C117.852 56.4146 117.748 56.3208 117.619 56.2455C117.49 56.17 117.343 56.1059 117.178 56.0534C117.012 56.0008 116.843 55.9468 116.67 55.8916C116.497 55.8364 116.327 55.7723 116.162 55.6995C115.997 55.6267 115.85 55.5324 115.721 55.4164C115.592 55.3005 115.488 55.1555 115.409 54.9818C115.329 54.8078 115.29 54.5928 115.29 54.3368C115.29 54.1319 115.329 53.9337 115.409 53.7423C115.488 53.5511 115.603 53.3811 115.753 53.2328C115.904 53.0847 116.09 52.966 116.311 52.877C116.533 52.7881 116.787 52.7435 117.075 52.7435C117.397 52.7435 117.691 52.7948 117.958 52.8972C118.223 52.9997 118.456 53.1479 118.655 53.342L118.465 53.7142Z" fill="black"/>
<path d="M126.234 57.4061C126.277 57.4061 126.316 57.4237 126.351 57.4586L126.657 57.7942C126.421 58.0692 126.134 58.2836 125.797 58.4371C125.46 58.5908 125.054 58.6676 124.578 58.6676C124.162 58.6676 123.784 58.5955 123.446 58.4513C123.107 58.3072 122.819 58.105 122.58 57.8448C122.34 57.5845 122.155 57.2726 122.024 56.9087C121.892 56.5448 121.826 56.1444 121.826 55.7077C121.826 55.271 121.897 54.8708 122.038 54.5068C122.179 54.1429 122.377 53.8302 122.632 53.5687C122.887 53.3072 123.193 53.1043 123.549 52.9602C123.905 52.8159 124.297 52.7438 124.727 52.7438C125.152 52.7438 125.518 52.8099 125.826 52.9419C126.133 53.0739 126.406 53.2533 126.646 53.4797L126.392 53.8396C126.373 53.8665 126.351 53.8888 126.327 53.9063C126.303 53.9239 126.268 53.9326 126.222 53.9326C126.187 53.9326 126.15 53.9198 126.112 53.8942C126.072 53.8686 126.026 53.8369 125.972 53.7991C125.919 53.7614 125.856 53.7209 125.783 53.6778C125.711 53.6346 125.625 53.5943 125.525 53.5566C125.426 53.5189 125.31 53.4872 125.179 53.4616C125.047 53.436 124.895 53.4231 124.723 53.4231C124.414 53.4231 124.132 53.4762 123.875 53.5828C123.618 53.6893 123.398 53.8409 123.212 54.0377C123.027 54.2345 122.882 54.4744 122.779 54.7574C122.675 55.0405 122.624 55.3573 122.624 55.7077C122.624 56.069 122.676 56.3912 122.779 56.6743C122.882 56.9573 123.023 57.1966 123.202 57.3919C123.381 57.5874 123.592 57.7363 123.837 57.8387C124.081 57.9413 124.344 57.9924 124.627 57.9924C124.798 57.9924 124.953 57.9822 125.09 57.9621C125.227 57.942 125.354 57.9101 125.471 57.8671C125.588 57.8239 125.696 57.7693 125.797 57.7033C125.898 57.6373 125.999 57.5584 126.101 57.4668C126.147 57.4263 126.191 57.4061 126.234 57.4061Z" fill="black"/>
<path d="M134.754 58.6031H133.968V55.9666H130.857V58.6031H130.071V52.8085H130.857V55.3925H133.968V52.8085H134.754V58.6031Z" fill="black"/>
<path d="M139.331 57.9439H141.829V58.603H138.549V52.8083H139.331V57.9439Z" fill="black"/>
<path d="M149.828 58.6031H149.224C149.154 58.6031 149.097 58.5856 149.054 58.5507C149.011 58.5157 148.979 58.471 148.958 58.4171L148.418 57.018H145.827L145.287 58.4171C145.268 58.4656 145.235 58.5088 145.19 58.5466C145.144 58.5844 145.088 58.6032 145.021 58.6032H144.416L146.725 52.8086H147.519L149.828 58.6031ZM146.044 56.4519H148.2L147.293 54.0944C147.234 53.9488 147.177 53.7668 147.12 53.5485C147.091 53.6591 147.062 53.7607 147.033 53.8537C147.005 53.9468 146.978 54.0284 146.951 54.0984L146.044 56.4519Z" fill="black"/>
<path d="M153.502 52.8347C153.535 52.8523 153.573 52.8879 153.616 52.9418L156.961 57.309C156.953 57.2389 156.948 57.1708 156.945 57.1047C156.942 57.0387 156.941 56.9748 156.941 56.9127V52.8082H157.626V58.6029H157.231C157.169 58.6029 157.118 58.5921 157.076 58.5705C157.034 58.549 156.993 58.5126 156.953 58.4613L153.612 54.0982C153.618 54.1655 153.622 54.2316 153.624 54.2963C153.627 54.361 153.629 54.4203 153.629 54.4741V58.6028H152.943V52.8081H153.346C153.416 52.8083 153.468 52.8172 153.502 52.8347Z" fill="black"/>
<path d="M166.427 55.7077C166.427 56.1418 166.358 56.5367 166.221 56.8926C166.084 57.2485 165.891 57.5531 165.641 57.8064C165.391 58.0597 165.091 58.2559 164.742 58.3948C164.393 58.5337 164.006 58.603 163.582 58.603H161.422V52.8083H163.582C164.006 52.8083 164.393 52.8779 164.742 53.0167C165.091 53.1556 165.391 53.3522 165.641 53.607C165.891 53.8617 166.084 54.167 166.221 54.5229C166.358 54.8787 166.427 55.2738 166.427 55.7077ZM165.625 55.7077C165.625 55.3518 165.576 55.0338 165.48 54.7534C165.383 54.4732 165.246 54.2359 165.069 54.0417C164.891 53.8477 164.676 53.6994 164.424 53.5969C164.172 53.4945 163.891 53.4433 163.582 53.4433H162.208V57.9682H163.582C163.891 57.9682 164.172 57.917 164.424 57.8146C164.676 57.7122 164.891 57.5646 165.069 57.3717C165.246 57.1791 165.383 56.9424 165.48 56.6621C165.576 56.3817 165.625 56.0635 165.625 55.7077Z" fill="black"/>
</svg>
