<svg width="184" height="51" viewBox="0 0 184 51" fill="none" xmlns="http://www.w3.org/2000/svg">
<path d="M100.066 21.5188C97.6011 21.5188 96.5964 22.7087 96.5964 25.1801V30.0302C96.5964 32.5015 97.6011 33.6915 100.066 33.6915C102.53 33.6915 103.626 32.5015 103.626 30.0302V25.1801C103.626 22.7087 102.53 21.5188 100.066 21.5188ZM138.493 21.5188C136.028 21.5188 135.023 22.3422 135.023 24.3559V25.5466C135.023 27.1941 136.485 28.0176 137.945 28.3837C139.406 28.7498 139.68 28.9318 139.68 29.5725V30.672C139.68 31.4958 139.314 31.7696 138.493 31.7696C137.671 31.7696 137.214 31.4039 137.214 30.3055V29.2078H135.023V30.5808C135.023 32.8691 136.119 33.6915 138.493 33.6915C140.866 33.6915 141.869 32.868 141.869 30.8543V29.4813C141.869 27.7422 140.592 26.9192 139.04 26.5531C137.488 26.1869 137.214 26.0028 137.214 25.4536V24.4471C137.214 23.7148 137.489 23.4406 138.402 23.4406C139.314 23.4406 139.68 23.8071 139.68 24.7224V25.8201H141.869V24.5383C141.869 22.433 140.957 21.5188 138.493 21.5188ZM73.8683 21.61V33.6003H76.0592V28.7502H76.972L78.1593 33.6003H80.3503L78.9812 28.3837C79.8026 28.0175 80.1667 27.2857 80.1667 26.0042V24.4471C80.1667 22.2503 79.5288 21.61 77.1556 21.61H73.8683ZM81.9013 21.61V33.6003H87.196V31.4961H84.0013V28.3837H87.1033V26.3689H84.0013V23.7159H87.196V21.61H81.9013ZM88.747 21.61V33.6003H90.938V29.7567H92.0326C94.497 29.7567 95.2273 28.9318 95.2273 26.8266V24.5383C95.2273 22.433 94.4058 21.61 92.0326 21.61H88.747ZM105.177 21.61V33.6003H107.368V28.7502H108.28L109.466 33.6003H111.748L110.379 28.3837C111.2 28.0175 111.566 27.2857 111.566 26.0042V24.4471C111.566 22.2503 110.926 21.61 108.553 21.61H105.177ZM112.753 21.61V23.8071H114.67V33.6003H116.861V23.8071H118.686V21.61H112.753ZM120.237 21.61V33.6003H125.623V31.4961H122.428V28.3837H125.439V26.3689H122.428V23.7159H125.623V21.61H120.237ZM127.174 21.61V33.6003H129.365V28.7502H130.278L131.465 33.6003H133.654L132.285 28.3837C133.107 28.0175 133.472 27.2857 133.472 26.0042V24.4471C133.472 22.2503 132.833 21.61 130.46 21.61H127.174ZM100.066 23.5318C100.978 23.5318 101.435 23.9891 101.435 25.4536V29.7567C101.435 31.2212 100.978 31.6785 100.066 31.6785C99.1528 31.6785 98.7874 31.2212 98.7874 29.7567V25.4536C98.7874 23.9891 99.1528 23.5318 100.066 23.5318ZM76.0592 23.6229H77.1556C77.7946 23.6229 77.9757 23.8071 77.9757 24.7224V25.8201C77.9757 26.7354 77.7946 26.9195 77.1556 26.9195H76.0592V23.6229ZM90.938 23.6229H92.0326C92.6715 23.6229 93.0363 23.8975 93.0363 24.9959V26.553C93.0363 27.6514 92.6715 27.8348 92.0326 27.8348H90.938V23.6229ZM107.368 23.6229H108.462C109.101 23.6229 109.375 23.8071 109.375 24.7224V25.8201C109.375 26.7354 109.101 26.9195 108.462 26.9195H107.368V23.6229ZM129.365 23.6229H130.46C131.098 23.6229 131.281 23.8071 131.281 24.7224V25.8201C131.281 26.7354 131.098 26.9195 130.46 26.9195H129.365V23.6229ZM154.648 35.615L155.56 36.5304H156.839L156.566 35.615H154.648ZM77.2466 36.895C74.7821 36.895 73.7773 37.7203 73.7773 39.734V40.9228C73.7773 42.5704 75.2388 43.5783 76.6993 43.8529C78.1597 44.1275 78.4321 44.3099 78.4321 44.9506V46.1412C78.4321 46.8735 78.068 47.1477 77.2466 47.1477C76.4251 47.1477 75.9683 46.7816 75.9683 45.7747V44.5841H73.7773V45.9571C73.7773 48.2454 74.9646 49.0695 77.2466 49.0695C79.5285 49.0695 80.6231 48.2461 80.6231 46.2324V44.8594C80.6231 43.1203 79.3455 42.2954 77.7939 41.9293C76.2422 41.5632 75.9683 41.3808 75.9683 40.8316V39.8252C75.9683 39.1844 76.2429 38.8187 77.1556 38.8187C78.0684 38.8187 78.4321 39.1833 78.4321 40.0987V41.1981H80.6231V39.9163C80.6231 37.9026 79.711 36.895 77.2466 36.895ZM101.526 36.895C99.0612 36.895 98.0565 37.7203 98.0565 39.734V40.9228C98.0565 42.5704 99.5179 43.5783 100.978 43.8529C102.439 44.1275 102.713 44.3099 102.713 44.9506V46.1412C102.713 46.8735 102.347 47.1477 101.526 47.1477C100.704 47.1477 100.247 46.7816 100.247 45.7747V44.5841H98.0565V45.9571C98.0565 48.2454 99.1525 49.0695 101.526 49.0695C103.899 49.0695 104.902 48.2461 104.902 46.2324V44.8594C104.902 43.1203 103.625 42.2954 102.073 41.9293C100.521 41.5632 100.247 41.3808 100.247 40.8316V39.8252C100.247 39.1844 100.522 38.8187 101.435 38.8187C102.348 38.8187 102.713 39.1833 102.713 40.0987V41.1981H104.902V39.9163C104.902 37.9026 103.99 36.895 101.526 36.895ZM128.634 36.895C126.17 36.895 125.076 38.085 125.076 40.5563V45.4082C125.076 47.8796 126.17 49.0695 128.634 49.0695C131.098 49.0695 132.194 47.8796 132.194 45.4082V40.5563C132.194 38.085 131.098 36.895 128.634 36.895ZM178.745 36.895C176.372 36.895 175.278 37.7203 175.278 39.734V40.9228C175.278 42.5704 176.646 43.5783 178.198 43.8529C179.749 44.1275 180.023 44.3099 180.023 44.9506V46.1412C180.023 46.8735 179.566 47.1477 178.836 47.1477C177.923 47.1477 177.467 46.7816 177.467 45.7747V44.5841H175.278V45.9571C175.278 48.2454 176.372 49.0695 178.745 49.0695C181.118 49.0695 182.214 48.2461 182.214 46.2324V44.8594C182.214 43.1203 180.844 42.2954 179.292 41.9293C177.741 41.5632 177.559 41.3808 177.559 40.8316V39.8252C177.559 39.1844 177.923 38.8187 178.745 38.8187C178.92 38.7859 179.1 38.7963 179.27 38.849C179.44 38.9017 179.594 38.9951 179.72 39.1211C179.846 39.2471 179.939 39.402 179.992 39.5723C180.045 39.7427 180.056 39.9233 180.023 40.0987V41.1981H182.214V39.9163C182.214 37.9026 181.118 36.895 178.745 36.895ZM83.545 36.988L81.8104 48.9783H83.9086L84.2741 46.1412H86.0996L86.556 48.9783H88.6561L86.9215 36.988H83.545ZM89.8416 36.988V48.9783H91.8507V42.2958L94.4054 48.9783H96.5055V36.988H94.4981V43.5776L92.0326 36.988H89.8416ZM110.288 36.988V48.9783H112.479V44.1264H115.492V42.0223H112.479V39.1833H115.673V36.988H110.288ZM117.224 36.988V48.9783H119.415V44.1264H120.328L121.516 48.9783H123.797L122.428 43.7599C123.25 43.3938 123.614 42.6619 123.614 41.3805V39.734C123.614 37.6287 122.885 36.988 120.603 36.988H117.224ZM133.747 36.988V48.9783H135.754V42.2958L138.311 48.9783H140.409V36.988H138.402V43.5776L135.936 36.988H133.747ZM141.962 36.988V39.1833H143.787V48.9783H145.976V39.1833H147.895V36.988H141.962ZM149.446 36.988V49.0051H151.637V36.988H149.446ZM153.462 36.988V48.9783H158.848V46.8724H155.653V43.6688H158.755V41.747H155.653V39.0922H158.848V36.988H153.462ZM160.399 36.988V48.9783H162.59V44.1264H163.503L164.688 48.9783H166.97L165.601 43.7599C166.422 43.3938 166.788 42.6619 166.788 41.3805V39.734C166.788 37.6287 166.057 36.988 163.775 36.988H160.399ZM168.432 36.988V48.9783H173.816V46.8724H170.621V43.6688H173.634V41.747H170.621V39.0922H173.816V36.988H168.432ZM128.634 38.9098C129.547 38.9098 130.003 39.3671 130.003 40.8316V45.2259C130.003 46.6904 129.547 47.0565 128.634 47.0565C127.721 47.0565 127.265 46.6904 127.265 45.2259V40.8316C127.265 39.3671 127.721 38.9098 128.634 38.9098ZM119.415 39.001H120.512C121.151 39.001 121.332 39.2749 121.332 40.0987V41.1981C121.332 42.1134 121.151 42.2958 120.512 42.2958H119.415V39.001ZM162.59 39.001H163.684C164.323 39.001 164.597 39.2749 164.597 40.0987V41.1981C164.597 42.1134 164.323 42.2958 163.684 42.2958H162.59V39.001ZM85.1869 39.2763L85.8269 44.3106H84.5486L85.1869 39.2763Z" fill="black"/>
<path d="M2.03418 1.93054V48.9783H11.8927V30.0301H14.0819C14.4693 30.0316 14.8461 30.1566 15.1579 30.387C15.4697 30.6174 15.7004 30.9413 15.8165 31.3119L20.1076 49.0695H37.8137C34.8016 49.0695 33.1601 48.704 31.0607 46.5988C28.9614 44.4936 28.1388 41.9303 28.1388 38.9098V35.2485H37.8137V39.2763C37.8137 40.3746 37.9061 41.5646 39.3665 41.5646C40.8269 41.5646 40.8266 40.2824 40.8266 39.0009V35.1573C40.8462 34.3497 40.6644 33.55 40.2977 32.8307C39.9309 32.1114 39.3909 31.4953 38.7265 31.0384C37.905 30.4892 33.8889 27.9256 32.7935 27.1018C31.3331 26.0079 30.1504 24.5841 29.3416 22.9458C28.5329 21.3076 28.1208 19.5012 28.1388 17.6733V13.0967C28.1388 8.42858 27.3177 6.14136 25.766 4.58532C24.2143 3.02928 20.9284 1.93054 16.182 1.93054H2.03418ZM33.2499 1.93054C36.9922 1.93054 41.2837 2.02171 44.7522 3.39469C45.96 3.93414 47.0447 4.71613 47.9395 5.69237C48.8342 6.66861 49.5199 7.8184 49.9542 9.07074C50.3212 10.2874 50.5056 11.5521 50.5015 12.8232V16.2091H40.9175V12.9144C40.9175 11.816 41.0098 9.89309 39.2756 9.89309C37.5413 9.89309 37.7228 11.541 37.7228 12.5479V16.0268C37.7113 16.8305 37.907 17.6236 38.2908 18.3292C38.6747 19.0349 39.2337 19.6292 39.9138 20.0546C41.3742 21.1529 44.4783 22.9829 45.6649 23.8982C46.9447 24.8545 48.0173 26.0617 48.8174 27.4465C49.6176 28.8313 50.1287 30.3647 50.3196 31.9537C50.4255 32.8343 50.4862 33.7198 50.5015 34.6067V39.2763C50.5121 41.0543 50.106 42.8099 49.316 44.4017C47.3992 47.8799 44.7514 48.9783 40.8266 48.9783H60.36V30.0301H69.7604V21.7011H60.36V10.5349H70.0349V1.93054H33.2499ZM11.8927 10.0772H14.9947C17.5504 10.0772 18.373 10.8091 18.373 14.2873V18.6816C18.373 22.1598 17.5504 22.8917 14.9947 22.8917H11.8927V10.0772Z" fill="black"/>
</svg>
