<svg width="209" height="48" viewBox="0 0 209 48" fill="none" xmlns="http://www.w3.org/2000/svg">
<path d="M29.0006 12.8451C30.3613 11.4882 31.1257 9.64779 31.1257 7.72878C31.1257 5.80978 30.3613 3.96937 29.0006 2.61243C27.6399 1.25549 25.7945 0.493164 23.8702 0.493164C21.9459 0.493164 20.1004 1.25549 18.7397 2.61243C17.3791 3.96937 16.6146 5.80978 16.6146 7.72878C16.6146 9.64779 17.3791 11.4882 18.7397 12.8451C20.1004 14.2021 21.9459 14.9644 23.8702 14.9644C25.7945 14.9644 27.6399 14.2021 29.0006 12.8451Z" fill="black"/>
<path d="M41.4542 23.8174C41.4542 19.1355 39.6332 14.7232 36.3042 11.4175C36.0197 11.1338 35.7351 10.8643 35.4506 10.5947L35.4506 10.5947L39.4625 6.59378C39.7612 6.86334 40.0457 7.13291 40.3303 7.41666C42.4643 9.54478 44.143 12.0276 45.3096 14.7941C46.533 17.6458 47.1448 20.682 47.1448 23.8174C47.1448 26.9386 46.5188 29.9748 45.3096 32.8406C44.143 35.6072 42.4643 38.09 40.3303 40.2181C38.1963 42.3462 35.7066 44.0204 32.9325 45.1837C30.0729 46.4039 27.0285 47.0139 23.8844 47.0139C20.7546 47.0139 17.7101 46.3897 14.8363 45.1837C12.0622 44.0204 9.57251 42.3462 7.43853 40.2181C5.30455 38.09 3.62582 35.6072 2.45925 32.8406C1.23576 29.9889 0.624023 26.9528 0.624023 23.8174C0.624023 20.6961 1.24999 17.66 2.45925 14.7941C3.62582 12.0276 5.30455 9.54478 7.43853 7.41666C7.72306 7.13291 8.00759 6.86334 8.30635 6.59378L12.3182 10.5947L12.3182 10.5947C12.0194 10.8643 11.7207 11.1338 11.4362 11.4175C8.1214 14.7232 6.28618 19.1355 6.28618 23.8174C6.28618 28.4993 8.1214 32.9116 11.4362 36.2172C14.751 39.5229 19.1754 41.3531 23.8702 41.3531C28.5649 41.3531 32.9894 39.5229 36.3042 36.2172C39.6189 32.9116 41.4542 28.4993 41.4542 23.8174Z" fill="black"/>
<path d="M21.85 20.1145V37.9623C14.9075 36.9834 9.55828 31.0246 9.55828 23.8316C9.55828 19.4476 11.5358 15.5461 14.6372 12.9214L21.85 20.1145Z" fill="black"/>
<path d="M38.1821 23.8316C38.1821 31.0246 32.8329 36.9834 25.8903 37.9623V20.1145L33.1032 12.9214C36.2046 15.5461 38.1821 19.4618 38.1821 23.8316Z" fill="black"/>
<path d="M200.62 33.6724C201.396 34.3645 201.773 35.3291 201.773 36.5664C201.773 37.8036 201.396 38.7893 200.662 39.5023C199.907 40.2153 198.774 40.5927 197.244 40.5927H194.601V32.6239H197.348C198.753 32.6239 199.865 32.9804 200.62 33.6724ZM200.431 36.6083C200.431 34.7839 199.383 33.8612 197.285 33.8612H195.943V39.3135H197.432C198.397 39.3135 199.131 39.0828 199.655 38.6215C200.158 38.1811 200.431 37.5101 200.431 36.6083ZM185.836 32.6239H187.178V40.5927H185.71L181.201 34.7839V40.5927H179.859V32.6239H181.201L185.836 38.5796V32.6239ZM167.319 38.7893L166.522 40.5927H165.075L168.577 32.6239H170.024L173.526 40.5927H172.079L171.282 38.7893H167.319ZM170.758 37.552L169.311 34.2596L167.864 37.552H170.758ZM154.506 40.5927V32.6239H155.848V39.3135H159.476V40.5927H154.506ZM140.434 40.5927V32.6239H141.776V36.0841H145.74V32.6239H147.082V40.5927H145.74V37.3213H141.776V40.5927H140.434ZM130.473 39.3764C130.935 39.3764 131.333 39.2926 131.669 39.1458C132.004 38.999 132.361 38.7473 132.717 38.3908L133.577 39.2716C132.738 40.2153 131.711 40.6766 130.494 40.6766C129.299 40.6766 128.292 40.2991 127.495 39.5232C126.699 38.7473 126.3 37.7617 126.3 36.5873C126.3 35.413 126.699 34.4064 127.516 33.6305C128.334 32.8546 129.341 32.4352 130.578 32.4352C131.815 32.4352 132.843 32.8965 133.682 33.7983L132.822 34.7419C132.444 34.3854 132.088 34.1128 131.752 33.987C131.417 33.8612 131.019 33.7773 130.557 33.7773C129.76 33.7773 129.068 34.029 128.523 34.5532C127.978 35.0775 127.705 35.7485 127.705 36.5454C127.705 37.3633 127.978 38.0343 128.523 38.5796C129.089 39.1038 129.739 39.3764 130.473 39.3764ZM116.863 33.6724C116.465 33.6724 116.15 33.7563 115.899 33.9031C115.647 34.0709 115.521 34.3016 115.521 34.6371C115.521 34.9516 115.647 35.2033 115.899 35.3711C116.15 35.5388 116.675 35.7276 117.492 35.9163C118.31 36.105 118.918 36.3986 119.338 36.7551C119.757 37.1116 119.967 37.6359 119.967 38.3279C119.967 39.0199 119.694 39.5861 119.17 40.0265C118.646 40.4669 117.954 40.6766 117.115 40.6766C115.878 40.6766 114.766 40.2572 113.802 39.3974L114.64 38.3908C115.437 39.0829 116.276 39.4394 117.157 39.4394C117.597 39.4394 117.933 39.3555 118.185 39.1667C118.436 38.978 118.562 38.7264 118.562 38.4328C118.562 38.1182 118.436 37.8875 118.205 37.7198C117.975 37.552 117.555 37.3842 116.968 37.2584C116.381 37.1116 115.941 36.9858 115.626 36.8809C115.312 36.7551 115.06 36.6083 114.808 36.4196C114.347 36.0631 114.095 35.5179 114.095 34.7839C114.095 34.0499 114.368 33.4837 114.892 33.0853C115.437 32.6868 116.087 32.4771 116.884 32.4771C117.388 32.4771 117.891 32.561 118.394 32.7288C118.898 32.8965 119.338 33.1272 119.694 33.4418L118.981 34.4484C118.751 34.2387 118.436 34.0709 118.017 33.9241C117.639 33.7563 117.241 33.6724 116.863 33.6724ZM105.351 33.8612V40.5927H104.008V33.8612H101.597V32.6239H107.783V33.8612H105.351ZM90.1678 38.7683C90.5243 39.1877 91.0276 39.3974 91.6567 39.3974C92.2859 39.3974 92.7682 39.1877 93.1457 38.7683C93.5231 38.3489 93.6909 37.7617 93.6909 37.0277V32.6239H95.033V37.0906C95.033 38.244 94.7185 39.1248 94.0893 39.7329C93.4602 40.3621 92.6424 40.6556 91.6567 40.6556C90.6711 40.6556 89.8533 40.3411 89.2242 39.7329C88.595 39.1038 88.2805 38.2231 88.2805 37.0906V32.6239H89.6226V37.0277C89.6226 37.7827 89.7904 38.3489 90.1678 38.7683ZM81.2973 32.6239V33.8822H77.0403V36.0002H80.8569V37.1955H77.0403V39.3345H81.4231V40.5927H75.6772V32.6239H81.2973ZM67.6035 33.6724C68.3794 34.3645 68.7569 35.3291 68.7569 36.5664C68.7569 37.8036 68.3794 38.7893 67.6455 39.5023C66.8905 40.2153 65.7581 40.5927 64.2273 40.5927H61.585V32.6239H64.3321C65.7371 32.6239 66.8486 32.9804 67.6035 33.6724ZM67.3938 36.6083C67.3938 34.7839 66.3453 33.8612 64.2482 33.8612H62.9271V39.3135H64.416C65.3806 39.3135 66.1146 39.0828 66.6389 38.6215C67.1422 38.1811 67.3938 37.5101 67.3938 36.6083Z" fill="black"/>
<path d="M203.675 25.3988L201.972 21.4518H194.318L192.615 25.3988H188.268L196.162 7.12622H200.109L208.003 25.3988H203.675ZM198.145 12.5759L195.841 17.8854H200.409L198.145 12.5759ZM182.077 7.12622H186.144V25.3988H182.057V7.12622H182.077ZM175.926 9.53051C177.669 11.1334 178.55 13.3373 178.55 16.1824C178.55 19.0274 177.709 21.2714 176.006 22.9344C174.303 24.5974 171.718 25.4188 168.232 25.4188H161.981V7.14625H168.432C171.678 7.12622 174.183 7.92765 175.926 9.53051ZM172.92 20.3899C173.922 19.4482 174.423 18.0858 174.423 16.2825C174.423 14.4793 173.922 13.0969 172.92 12.1352C171.919 11.1734 170.376 10.6926 168.312 10.6926H166.028V21.8124H168.613C170.496 21.7924 171.919 21.3316 172.92 20.3899ZM158.034 7.12622V10.7527H148.938V14.5194H157.112V18.0056H148.938V21.7924H158.334V25.3988H144.87V7.12622H158.034ZM136.275 13.8983L131.326 23.8961H128.902L123.993 13.8983V25.3988H119.906V7.12622H125.436L130.144 17.1641L134.872 7.12622H140.362V25.3988H136.275V13.8983ZM111.33 7.12622H115.418V25.3988H111.33V7.12622ZM92.7774 7.12622H96.8647V14.6396L103.777 7.12622H108.806L101.533 15.2006C102.154 16.0822 103.316 17.7051 105.019 20.0693C106.702 22.4535 107.964 24.2167 108.806 25.3988H104.037L98.6679 18.1859L96.8446 20.2296V25.3988H92.7774V7.12622ZM84.2021 7.12622H88.2894V25.3988H84.2021V7.12622ZM63.2447 17.645L66.4905 7.12622H70.7581L73.9839 17.645L77.6103 7.12622H82.0382L75.6669 25.3988H72.6415L68.6343 12.6961L64.6673 25.3988H61.6419L55.2705 7.12622H59.6984L63.2447 17.645Z" fill="black"/>
</svg>
